<?xml version="1.0" encoding="UTF-8"?>
<svg version="1.1" viewBox="0 0 400 430.45" xmlns="http://www.w3.org/2000/svg">
<g fill-rule="evenodd">
<path d="m132.22 12.813c0 7.834-0.137 12.814-0.352 12.814-5.647 0-21.861 3.585-32.146 7.109-23.506 8.053-52.512 25.699-72.422 44.059l-2.526 2.33 1.029 2.684c12.294 32.077 40.149 63.05 68.74 76.435 10.337 4.839 28.642 10.001 35.465 10.001 2.328 0 2.212-0.603 2.212 11.553v11.103h90.437 90.436v-95.451-95.45h-90.436-90.437v12.813m18.199 13.203c33.929 3.068 68.669 22.121 93.352 51.2l1.703 2.006-2.678 3.007c-35.54 39.91-78.361 61.613-109.18 55.339l-1.021-0.208v-6.51c0-5.761 0.067-6.484 0.582-6.286 10.287 3.947 27.074 1.469 40.457-5.973 13.196-7.337 32.119-24.469 41.333-37.418l0.924-1.299-2.091-2.518c-19.577-23.574-45.972-37.321-72.756-37.894l-8.449-0.181v-6.619-6.619l1.392-0.146c3.014-0.315 12.386-0.248 16.435 0.119m-18.199 22.409v8.314l-3.064 0.441c-17.981 2.589-37.596 12.019-50.114 24.093l-2.953 2.85 1.156 3.342c8.762 25.334 28.853 44.443 52.343 49.786l2.632 0.599v7.718 7.718l-2.906-0.465c-30.652-4.908-57.696-29.221-72.463-65.145-2.607-6.342-2.869-5.737 6.643-15.306 18.403-18.513 46.058-31.786 67.148-32.226l1.578-0.033v8.314m14.599 8.409c14.619 1.387 27.233 7.474 38.819 18.733l4.207 4.089-1.062 0.933c-4.115 3.619-22.903 19.318-23.118 19.318-0.117 0-1.112-1.546-2.212-3.435-9.875-16.962-15.294-21.849-26.733-24.106l-4.128-0.815v-7.155-7.155l1.578-0.21c1.629-0.217 4.053-0.395 6.964-0.511 0.919-0.036 3.477 0.105 5.685 0.314m-14.708 15.356c0.063 0.063 0.071 11.665 0.019 25.782l-0.096 25.667-2.138-0.869c-12.214-4.965-23.515-18.016-29.205-33.73l-0.775-2.139 1.946-1.971c8.186-8.292 19.894-13.716 28.111-13.025 1.113 0.094 2.075 0.222 2.138 0.285m129.25 31.203c1.385 0.896 5.61 3.341 9.389 5.433 13.307 7.367 20.056 11.476 20.056 12.211 0 0.707-9.072 7.067-15.341 10.754-37.227 21.899-103.48 39.338-139.26 36.656l-3.615-0.271v-7.226-7.226l2.321 0.297c1.276 0.163 5.747 0.282 9.935 0.264 37.158-0.161 70.45-15.221 110.68-50.066 3.338-2.892 2.769-2.811 5.838-0.826" fill="#8cc43c"/>
<path d="m0 260.51v35.868h10.214 10.213v-27.133-27.134l21.374 0.228 2.488 1.225c7.071 3.484 7.763 6.331 7.978 32.851l0.162 19.963h9.832 9.831l-0.145-23.677c-0.123-20.125-0.235-24.041-0.741-26.107-2.982-12.162-9.265-18.18-21.785-20.871-3.314-0.712-5.095-0.774-26.487-0.922l-22.934-0.159v35.868m75.395-35.416c0 0.225 1.98 6.536 4.4 14.026 2.421 7.49 7.559 23.437 11.418 35.438l7.016 21.82 14.674-9e-3 14.674-0.01 7.602-23.482c4.182-12.915 9.401-28.997 11.599-35.738s3.999-12.298 4.004-12.349c4e-3 -0.051-4.641-0.093-10.323-0.093h-10.329l-8.288 27.948c-4.558 15.372-8.391 28.064-8.518 28.205-0.128 0.142-1.625-4.622-3.327-10.585s-5.31-18.613-8.018-28.112l-4.924-17.27-10.83-0.099c-7.683-0.069-10.83 0.021-10.83 0.31m83.936 35.444v35.84h10.028 10.028v-35.84-35.841h-10.028-10.028v35.841m32.684-0.015v35.907l22.005-0.15c28.954-0.198 31.587-0.754 39.09-8.259 11.385-11.385 10.751-42.377-1.11-54.225-7.576-7.568-12.862-8.735-40.765-8.998l-19.22-0.181v35.906m78.737 0.015v35.84h10.028 10.028v-35.84-35.841h-10.028-10.028v35.841m56.508-35.195c-0.191 0.36-2.358 5.752-4.814 11.982-2.457 6.23-8.659 21.93-13.782 34.888-5.122 12.958-9.314 23.698-9.314 23.868s4.447 0.264 9.881 0.21l9.881-0.099 0.823-2.228c0.452-1.226 1.456-4.027 2.231-6.225l1.409-3.996 16.737 0.096 16.737 0.097 2.062 6.221 2.061 6.221h10.863 10.862l-0.322-0.836c-0.177-0.459-5.261-13.23-11.297-28.38-6.036-15.149-12.288-30.859-13.893-34.912l-2.917-7.367-13.43-0.098c-12.505-0.09-13.454-0.052-13.778 0.558m14.975 17.182c0.769 2.144 1.947 5.403 2.618 7.242 0.67 1.838 2.657 7.281 4.413 12.096 1.757 4.814 3.195 8.95 3.195 9.192 0 0.329-3.081 0.439-12.288 0.439-7.219 0-12.236-0.139-12.163-0.338 4.82-13.152 12.44-32.971 12.604-32.785 0.123 0.14 0.852 2.009 1.621 4.154m-114.23-1.313c9.051 2.236 13.219 8.389 13.219 19.511 0 14.763-6.504 20.419-23.491 20.425l-5.663 2e-3v-20.479-20.48l6.778 0.217c4.217 0.135 7.677 0.439 9.157 0.804m162.96 45.283c-3.72 1.383-5.17 5.601-3.157 9.182 2.347 4.176 9.83 3.768 11.67-0.636 2.237-5.352-2.99-10.598-8.513-8.546m5.308 2.021c3.352 2.503 1.516 8.605-2.589 8.605-3.13 0-5.096-2.216-4.743-5.345 0.414-3.672 4.405-5.446 7.332-3.26m-5.562 3.776c0 3.095 0.055 3.343 0.743 3.343 0.601 0 0.743-0.248 0.743-1.3 0-0.805 0.18-1.3 0.472-1.3 0.26 0 0.788 0.585 1.173 1.3 0.506 0.94 0.951 1.3 1.607 1.3h0.906l-0.779-1.321c-0.948-1.606-0.946-1.52-0.037-1.758 0.567-0.148 0.743-0.506 0.743-1.516 0-1.657-0.726-2.09-3.504-2.09h-2.067v3.342m3.91-1.84c0.331 0.536-0.515 1.469-1.334 1.469-0.813 0-1.232-0.581-0.949-1.318 0.237-0.619 1.925-0.731 2.283-0.151m-313.29 65.672c-10.096 2.213-17.552 9.613-19.51 19.362-1.539 7.663-1.102 31.617 0.689 37.802 4.241 14.642 23.012 21.726 37.866 14.29 6.788-3.398 11.364-9.7 13.217-18.201l0.344-1.579h-5.64-5.64l-0.72 2.119c-4.444 13.074-23.303 14.336-27.967 1.871-1.783-4.767-2.478-26.148-1.089-33.516 2.992-15.868 23.519-17.546 28.865-2.359l0.699 1.988 11.529 0.204-0.746-2.702c-4.077-14.751-16.978-22.549-31.897-19.279m228.08 0.059c-5.741 3.597-3.453 11.875 3.283 11.875 8.272 0 8.56-12.072 0.298-12.537-1.873-0.106-2.56 0.021-3.581 0.662m-181.57 27.196 0.107 27.205 1.033 3.051c7.55 22.29 42.183 22.689 50.159 0.578 1.595-4.422 1.74-7.224 1.726-33.434l-0.013-24.605h-5.735-5.735l-0.105 26.667-0.104 26.668-1.399 2.83c-5.76 11.653-23.284 10.783-27.849-1.384-0.834-2.223-0.836-2.283-0.941-28.505l-0.104-26.276h-5.573-5.573l0.106 27.205m71.23 9.727v36.977h13.715c20.267 0 25.046-1.069 31.012-6.937 5.818-5.722 7.246-10.936 7.536-27.501 0.367-20.951-1.686-28.506-9.308-34.261-6.022-4.547-8.219-4.962-27.077-5.121l-15.878-0.133v36.976m85.98-36.468c-0.09 0.255-2.102 5.729-4.471 12.163-2.37 6.435-6.115 16.63-8.322 22.656-6.062 16.545-13.668 37.242-13.961 37.985-0.243 0.618 0.123 0.653 5.774 0.557l6.033-0.102 2.505-7.242 2.506-7.243 29.352-0.194 0.225 0.898c0.124 0.494 1.248 3.838 2.498 7.432l2.271 6.535h5.901c3.245 0 5.901-0.08 5.901-0.178 0-0.206-7.414-20.529-15.788-43.276-3.195-8.682-7.009-19.084-8.474-23.116l-2.665-7.331-4.561-4e-3c-3.318-3e-3 -4.606 0.122-4.724 0.46m30.791 1.04c3.794 3.331 1.675 9.266-3.307 9.266-3.864 0-6.283-4.269-4.439-7.834 1.404-2.716 5.435-3.461 7.746-1.432m-5.35 4.067c0 2.723 0.103 3.342 0.557 3.342 0.389 0 0.557-0.392 0.557-1.3 0-0.826 0.178-1.3 0.489-1.3 0.268 0 0.767 0.585 1.108 1.3 0.409 0.859 0.877 1.3 1.378 1.3 0.73 0 0.736-0.044 0.158-1.16-0.558-1.079-0.554-1.247 0.056-2.38 1.032-1.915 0.072-3.145-2.454-3.145h-1.849v3.343m2.915-2.271c0.841 0.533 0.342 1.701-0.783 1.831-0.914 0.106-1.018 1e-3 -1.018-1.021 0-1.18 0.712-1.5 1.801-0.81m-85.292 7.145c8.892 1.889 11.623 6.888 12.048 22.052 0.753 26.86-2.54 31.355-22.986 31.376l-6.963 8e-3v-26.927-26.927h7.966c4.49 0 8.826 0.183 9.935 0.418m67.665 23.074 5.385 15.877h-11.296-11.296l2.435-6.964c1.339-3.83 3.692-10.557 5.227-14.949 1.536-4.392 2.972-8.532 3.191-9.201 0.588-1.797 0.534-1.926 6.354 15.237" fill="#040404"/>
</g>
</svg>
