<?xml version="1.0" encoding="UTF-8"?>
<svg viewBox="0 0 216 91" xmlns="http://www.w3.org/2000/svg">
<g fill-rule="evenodd">
<path d="M73.95 18.657l-28.637-17a10.789 10.789 0 00-11.05 0l-28.636 17C2.21 20.686.104 24.435.104 28.493V62.49c0 4.057 2.106 7.808 5.524 9.837l28.637 16.996a10.798 10.798 0 0011.047 0l28.637-16.996c3.418-2.03 5.525-5.78 5.525-9.837V28.493c0-4.058-2.107-7.807-5.524-9.836z" fill="#FEFEFE"/>
<path d="M35.266 87.583L6.629 70.587c-2.801-1.663-4.541-4.765-4.541-8.097V28.493c0-3.332 1.74-6.434 4.54-8.096L35.266 3.398a8.868 8.868 0 014.523-1.246c1.585 0 3.149.431 4.523 1.246l28.637 17c2.36 1.4 3.952 3.826 4.4 6.547-.95-2.027-3.092-2.578-5.588-1.12L44.669 42.56c-3.378 1.975-5.87 4.191-5.871 8.264v33.383c-.002 2.44.983 4.02 2.496 4.477a8.82 8.82 0 01-1.505.146 8.868 8.868 0 01-4.523-1.246M73.95 18.656L45.313 1.658A10.806 10.806 0 0039.789.136c-1.908 0-3.816.507-5.525 1.522L5.627 18.656C2.21 20.686.104 24.436.104 28.493V62.49c0 4.057 2.106 7.808 5.524 9.837l28.637 16.997a10.814 10.814 0 005.524 1.521c1.908 0 3.814-.507 5.523-1.52L73.95 72.326c3.418-2.029 5.524-5.78 5.524-9.837V28.493c0-4.058-2.106-7.808-5.524-9.837" fill="#3E474A"/>
<path d="M66.443 65.777l-7.131 4.268c-.19.11-.328.234-.33.461v1.866c0 .228.154.323.343.212l7.24-4.4c.19-.11.219-.322.22-.549V65.99c0-.227-.153-.322-.342-.212" fill="#47B353"/>
<path d="M51.258 50.07c.231-.117.421.027.424.33l.024 2.466c1.033-.41 1.93-.52 2.743-.333.176.047.254.287.182.572l-.543 2.186a.936.936 0 01-.247.436.58.58 0 01-.143.106.324.324 0 01-.214.035c-.371-.084-1.253-.277-2.641.426-1.456.737-1.965 2.002-1.955 2.941.012 1.121.587 1.461 2.573 1.495 2.646.044 3.789 1.2 3.817 3.865.027 2.617-1.37 5.427-3.507 7.15l.047 2.441c.003.294-.188.631-.419.748l-1.446.833c-.232.117-.422-.027-.425-.32l-.025-2.403c-1.239.515-2.494.64-3.296.317-.151-.059-.216-.282-.156-.536l.524-2.208a.916.916 0 01.259-.459.546.546 0 01.136-.099.288.288 0 01.233-.025c.864.291 1.969.155 3.032-.383 1.35-.683 2.253-2.06 2.239-3.428-.013-1.24-.685-1.757-2.319-1.769-2.08.006-4.019-.404-4.051-3.466-.026-2.52 1.285-5.144 3.36-6.803l-.026-2.465c-.003-.303.182-.636.42-.756l1.4-.894z" fill="#FEFEFE"/>
<path d="M98.634 48.046h6.31a8.627 8.627 0 012.48.426c.72.24 1.352.587 1.88 1.03a4.56 4.56 0 011.21 1.579c.29.619.432 1.353.417 2.208 0 .807-.16 1.526-.474 2.138a4.717 4.717 0 01-1.301 1.582 6.72 6.72 0 01-2 1.06 8.013 8.013 0 01-2.426.413h-6.096V48.046zm10.84-9.3a4.507 4.507 0 01-1.277 1.4 6.32 6.32 0 01-1.912.915 8.608 8.608 0 01-2.27.354h-5.381v-8.9h5.22c.84.015 1.669.119 2.467.31.734.176 1.386.45 1.936.815.515.34.915.768 1.224 1.304.295.514.445 1.173.445 1.958 0 .724-.148 1.327-.451 1.845zm7.036 8.065a10.452 10.452 0 00-2.926-2.434 10.14 10.14 0 002.078-1.836 8.796 8.796 0 001.504-2.515c.365-.931.56-1.966.58-3.086.02-1.942-.386-3.651-1.21-5.081a10.42 10.42 0 00-3.271-3.487c-1.32-.88-2.838-1.536-4.516-1.954a21.764 21.764 0 00-5.025-.636H92.26c-.8 0-1.45.617-1.45 1.378v36.65c0 .762.65 1.379 1.45 1.379h12.352a18.535 18.535 0 005.204-.795c1.7-.518 3.229-1.276 4.542-2.255a11.331 11.331 0 003.228-3.741c.81-1.502 1.212-3.243 1.192-5.16 0-1.24-.201-2.417-.596-3.498a9.923 9.923 0 00-1.673-2.93zM139.996 48.891h-6.328l3.189-9.827 3.139 9.827zm.317-22.149c-.191-.572-.75-.96-1.381-.96h-4.103c-.63 0-1.185.385-1.378.954l-12.443 36.652c-.142.42-.065.877.208 1.234.273.356.708.566 1.17.566h4.899c.634 0 1.195-.393 1.383-.969l2.78-8.522h10.726l2.732 8.516c.186.58.749.975 1.386.975h4.87c.463 0 .897-.209 1.17-.564a1.32 1.32 0 00.21-1.23l-12.23-36.652zM181.976 48.227a12.379 12.379 0 00-2.302-2.26 19.296 19.296 0 00-2.719-1.715 26.519 26.519 0 00-2.976-1.322 49.909 49.909 0 00-2.989-1.002 60.092 60.092 0 01-2.698-.861 12.753 12.753 0 01-2.445-1.127 5.796 5.796 0 01-1.672-1.484c-.376-.502-.566-1.125-.578-1.882 0-.751.147-1.378.451-1.92a4.322 4.322 0 011.267-1.413 6.067 6.067 0 011.918-.91c1.684-.476 3.573-.405 4.939.102a5.727 5.727 0 011.91 1.15 5.795 5.795 0 011.304 1.803c.346.737.584 1.577.707 2.495.09.687.707 1.203 1.437 1.203h5.029c.39 0 .762-.148 1.035-.413a1.34 1.34 0 00.413-.992c-.04-1.878-.475-3.612-1.293-5.152a12.491 12.491 0 00-3.248-3.906c-1.326-1.057-2.865-1.887-4.573-2.47-3.244-1.103-6.847-1.162-10.29-.143-1.657.49-3.16 1.222-4.47 2.17a11.745 11.745 0 00-3.258 3.569c-.852 1.444-1.285 3.093-1.285 4.903 0 1.822.44 3.444 1.304 4.822a12.553 12.553 0 003.186 3.413c1.245.923 2.64 1.71 4.145 2.34a46.999 46.999 0 004.284 1.56c.918.28 1.875.593 2.87.939.906.315 1.746.712 2.496 1.18a5.58 5.58 0 011.666 1.56c.38.548.566 1.229.566 2.084 0 .76-.159 1.38-.483 1.898a4.512 4.512 0 01-1.356 1.388 6.38 6.38 0 01-2.012.854c-1.811.444-3.782.374-5.337-.103a6.706 6.706 0 01-2.205-1.133 6.135 6.135 0 01-1.553-1.83c-.41-.73-.685-1.593-.82-2.564-.096-.685-.71-1.197-1.436-1.197H155.9c-.392 0-.767.15-1.038.417a1.343 1.343 0 00-.41 1c.06 1.963.559 3.749 1.483 5.308a13.01 13.01 0 003.542 3.887c1.421 1.04 3.052 1.847 4.846 2.398 1.777.545 3.62.82 5.475.82 1.66 0 3.343-.224 4.999-.667 1.685-.451 3.224-1.137 4.57-2.037a11.535 11.535 0 003.39-3.48c.9-1.435 1.355-3.122 1.355-5.01 0-1.237-.191-2.393-.57-3.434a10.37 10.37 0 00-1.567-2.836M214.087 25.782h-4.633c-.8 0-1.449.616-1.449 1.377V41.54H195.1V27.159c0-.761-.648-1.377-1.448-1.377h-4.607c-.8 0-1.449.616-1.449 1.377v36.652c0 .761.65 1.377 1.45 1.377h4.606c.8 0 1.448-.616 1.448-1.377V48.247h12.906v15.564c0 .761.65 1.377 1.45 1.377h4.632c.8 0 1.45-.616 1.45-1.377V27.159c0-.761-.65-1.377-1.45-1.377M95.243 71.541H93.49v4.69h-.937v-4.69h-1.741v-.739h4.43zM100.64 76.231h-.917v-2.423h-1.941v2.423h-.914v-5.429h.914v2.271h1.94v-2.27h.918zM106.03 73.797h-2.35V75.5h2.75v.73h-3.695v-5.428h3.666v.738h-2.72v1.532h2.348zM115.11 73.77v1.73h1.027c.149-.001.285-.023.408-.064s.228-.098.318-.17a.776.776 0 00.286-.615.945.945 0 00-.067-.367.75.75 0 00-.192-.275.895.895 0 00-.306-.173 1.33 1.33 0 00-.404-.065h-1.07zm0-.682h.902c.14-.002.272-.02.394-.054a.937.937 0 00.315-.15.68.68 0 00.29-.571.765.765 0 00-.074-.351.65.65 0 00-.21-.238.952.952 0 00-.32-.136 1.939 1.939 0 00-.403-.047h-.894v1.547zm-.945 3.144v-5.43h1.823c.275.004.53.034.77.09.24.058.449.147.628.266.179.119.319.27.42.456.103.185.153.405.15.659a1.07 1.07 0 01-.235.687 1.487 1.487 0 01-.623.442c.159.042.3.103.425.18a1.189 1.189 0 01.504.645c.044.134.067.275.067.424 0 .258-.05.486-.15.682-.1.196-.237.36-.413.492a1.9 1.9 0 01-.627.3 2.922 2.922 0 01-.783.107h-1.956zM122.835 73.167a3.548 3.548 0 00-.058-.608 1.76 1.76 0 00-.184-.538 1.11 1.11 0 00-.344-.385.924.924 0 00-.534-.147.899.899 0 00-.529.147 1.067 1.067 0 00-.333.386c-.082.16-.14.338-.172.54-.032.2-.05.401-.053.605v.7c.002.204.022.406.055.607.034.2.091.38.174.54.082.16.195.29.334.39.14.1.316.15.528.15.214 0 .392-.05.535-.15.141-.1.255-.229.343-.388a1.77 1.77 0 00.181-.54c.035-.202.055-.405.057-.609v-.7zm.946.7c0 .321-.044.63-.13.923a2.383 2.383 0 01-.386.78 1.883 1.883 0 01-.644.536 1.939 1.939 0 01-.902.2c-.343 0-.641-.068-.894-.202a1.887 1.887 0 01-.635-.538 2.402 2.402 0 01-.38-.778 3.289 3.289 0 01-.127-.92v-.694c0-.214.018-.422.057-.626.038-.204.095-.396.169-.577.075-.18.167-.346.277-.499a1.761 1.761 0 01.902-.65c.19-.062.399-.094.627-.094.344 0 .645.067.903.202.258.134.473.314.645.538.172.226.301.486.387.782.087.295.13.603.13.924v.693zM129.366 70.802l.008 3.636c-.003.278-.05.533-.141.762a1.669 1.669 0 01-.983.971 2.187 2.187 0 01-.785.135c-.283 0-.54-.046-.77-.135a1.707 1.707 0 01-.591-.378 1.694 1.694 0 01-.384-.59 2.08 2.08 0 01-.141-.765l.008-3.636h.925l.007 3.636c.003.166.025.32.067.458.042.14.102.26.18.36a.8.8 0 00.293.235.923.923 0 00.406.084.973.973 0 00.415-.084.834.834 0 00.302-.236c.08-.1.142-.219.185-.359.04-.139.063-.292.066-.458l.008-3.636h.925zM132.352 73.39h.866c.157 0 .3-.02.432-.062.13-.043.243-.103.339-.181a.803.803 0 00.22-.288.919.919 0 00.08-.39c0-.151-.025-.285-.075-.401a.79.79 0 00-.214-.296.93.93 0 00-.34-.18 1.58 1.58 0 00-.446-.065h-.862v1.864zm.956.724h-.956v2.117h-.941v-5.428h1.803c.293.003.563.038.81.107.247.068.46.17.64.305.182.136.32.305.42.509.1.204.149.442.149.716 0 .184-.025.35-.076.5a1.436 1.436 0 01-.543.73 2.062 2.062 0 01-.423.235l1.207 2.282v.044h-1.003l-1.087-2.117zM140.83 76.231h-.949l-1.858-3.735-.004 3.735h-.953v-5.429h.953l1.851 3.726.008-3.726h.952zM146.224 73.797h-2.35V75.5h2.75v.73h-3.694v-5.428h3.666v.738h-2.721v1.532h2.349zM149.014 74.21h3.14v-.719h-3.14zM155.586 74.206h1.31l-.647-2.128-.663 2.128zm1.545.765h-1.784l-.392 1.26h-.973l1.855-5.428h.827l1.82 5.428h-.969l-.384-1.26zM163.936 75.553a1.93 1.93 0 01-.341.302 2.267 2.267 0 01-.44.238 2.844 2.844 0 01-.526.157c-.19.037-.392.055-.606.055-.343 0-.646-.063-.91-.19a1.93 1.93 0 01-.668-.519 2.333 2.333 0 01-.416-.778 3.246 3.246 0 01-.147-.962v-.67c0-.344.047-.664.14-.962a2.38 2.38 0 01.407-.78c.177-.222.393-.396.649-.523.256-.129.549-.193.878-.193.295 0 .559.04.792.115.233.078.433.19.6.335.167.145.3.322.398.531.098.208.16.442.186.701h-.925a1.636 1.636 0 00-.11-.395.849.849 0 00-.504-.487 1.213 1.213 0 00-.421-.065.917.917 0 00-.512.14c-.142.093-.26.218-.354.376a1.823 1.823 0 00-.21.548 3.279 3.279 0 00-.07.651v.678c.003.226.028.443.073.65.046.205.118.388.216.545.098.158.224.284.378.38.155.093.34.142.557.144.089 0 .18-.005.275-.016.094-.012.184-.03.268-.054a1.3 1.3 0 00.234-.095.558.558 0 00.172-.145l.008-1.085h-1.031v-.696h1.952l.008 2.07zM167.07 74.206h1.31l-.646-2.128-.663 2.128zm1.546.765h-1.784l-.392 1.26h-.973l1.855-5.428h.827l1.82 5.428h-.97l-.383-1.26zM171.715 70.802h3.396v.742h-1.235v3.95h1.235v.737h-3.396v-.737h1.208v-3.95h-1.208zM181.025 76.231h-.949l-1.858-3.735-.004 3.735h-.953v-5.429h.953l1.851 3.726.008-3.726h.952zM191.78 74.833a.676.676 0 00-.084-.34.841.841 0 00-.24-.26 1.672 1.672 0 00-.368-.196 5.062 5.062 0 00-.465-.155 5.442 5.442 0 01-.664-.23 2.594 2.594 0 01-.584-.338 1.66 1.66 0 01-.416-.467 1.175 1.175 0 01-.16-.616c0-.234.054-.443.16-.629.106-.185.248-.34.425-.47a2.04 2.04 0 01.62-.3 2.605 2.605 0 011.508.017c.239.081.448.195.627.34.179.145.32.32.425.521.105.203.158.428.16.674h-.94a1.258 1.258 0 00-.092-.375.878.878 0 00-.204-.293.91.91 0 00-.32-.19 1.283 1.283 0 00-.435-.067c-.141 0-.272.018-.392.052a.928.928 0 00-.312.153.679.679 0 00-.28.563c0 .127.034.237.102.33a.964.964 0 00.266.244c.11.07.237.13.379.181.143.051.29.097.445.14.238.067.465.15.682.248.217.098.408.216.573.354.164.138.295.298.392.48.096.18.145.388.145.622 0 .241-.054.453-.161.637a1.419 1.419 0 01-.431.462 2.04 2.04 0 01-.627.282 2.905 2.905 0 01-1.267.046 2.423 2.423 0 01-.937-.385 1.755 1.755 0 01-.355-.332 1.506 1.506 0 01-.327-.934h.944c.014.164.05.306.114.428a.887.887 0 00.25.304c.106.081.228.143.368.184.14.04.294.061.464.061.142 0 .274-.017.396-.048.123-.033.23-.08.322-.144a.716.716 0 00.216-.236.64.64 0 00.078-.318M198.255 76.231h-.917v-2.423h-1.941v2.423h-.914v-5.429h.914v2.271h1.941v-2.27h.917zM203.645 73.797h-2.35V75.5h2.75v.73h-3.694v-5.428h3.666v.738h-2.721v1.532h2.349zM207.073 75.501h2.721v.73h-3.662v-5.428h.941zM212.816 75.501h2.72v.73h-3.661v-5.428h.94z" fill="#3E474A"/>
</g>
</svg>
