<svg width="128" height="127.89" viewBox="0 0 33.87 33.84" xmlns="http://www.w3.org/2000/svg"><defs><linearGradient id="a" x1="571.26" x2="514.85" y1="135.05" y2="334.45" gradientUnits="userSpaceOnUse"><stop stop-color="#78c4ff" offset="0"/><stop stop-color="#d7aeff" offset="1"/></linearGradient><linearGradient id="b" x1="572.56" x2="506.34" y1="114.48" y2="363.73" gradientUnits="userSpaceOnUse"><stop stop-color="#1a6cff" offset="0"/><stop stop-color="#c522ff" offset="1"/></linearGradient></defs><g stroke-width="9.01"><path d="M516.27 326.03l-1.81-4.37a262.17 262.17 0 00-1.76-4.2l-.96-2.17-.87-1.98a254.58 254.58 0 00-3.44-7.61 408.97 408.97 0 00-6.4-12.76 7.07 7.07 0 01-.8-1.81c.06-.05 1.68-.6 3.6-1.24a46.38 46.38 0 0011.35-5.42c7.05-4.72 13.07-12.08 16.59-20.28.42-.98.47-1.1 1.2-3 .23-.6.5-1.3.62-1.56a28.2 28.2 0 00.55-1.56c.19-.6.48-1.4.64-1.8l.49-1.2c.1-.26.58-1.66 1.06-3.12l1.42-4.2c.3-.85.96-2.85 1.45-4.43.5-1.59.98-3.1 1.09-3.36.2-.54 1.2-3.75 1.68-5.4.17-.6.55-1.84.84-2.76a96.11 96.11 0 00.83-2.76c.16-.6.43-1.5.6-2.04.17-.53.42-1.39.57-1.92l.89-3.12c.35-1.19.74-2.59.87-3.11s.34-1.23.45-1.56c.2-.62.78-2.74 1.23-4.44l1.13-4.08.87-3.24c1-3.79 1.1-4.17 1.32-4.92.12-.4.6-2.23 1.09-4.08a587.05 587.05 0 011.47-5.64l.85-3.35c.4-1.52.8-3.2.92-3.72s.38-1.6.6-2.4c.38-1.38.58-2.16 1.03-4.14.2-.86.5-2.07.98-3.9l.47-1.92.85-3.66 1.22-5.16c.33-1.41.7-2.9.84-3.31.13-.4.23-.94.23-1.18 0-.25.1-.78.23-1.19.23-.76.76-3 1.2-5.05a846.07 846.07 0 011.7-7.68c.12-.53.49-2.3.82-3.96l.84-4.08.71-3.36c.73-3.42 1.3-5 1.95-5.4.44-.27 1.32.52 1.77 1.6.98 2.35.96 2.29 1.95 6.2l1.05 4.08c.13.46.34 1.33.47 1.92a723.17 723.17 0 001.7 7.32c.54 2.43 1.01 4.38 1.22 5.05.12.41.23.94.23 1.19 0 .24.1.77.22 1.18.13.4.4 1.5.61 2.42l.6 2.52c.17.71.7 2.96 1.69 7.31a733.24 733.24 0 001.68 7.2l.84 3.6c.34 1.45.72 3.07.83 3.6l1.2 5.16.83 3.6.85 3.71.6 2.64c.54 2.44.84 3.73 1.09 4.68.11.46.49 2.08.83 3.6a642.05 642.05 0 002.04 8.88l.83 3.6.85 3.71a668.3 668.3 0 011.67 7.38c.26 1.19.91 4 1.2 5.22.23.92 1.02 4.43 1.6 7.08l.57 2.52a435.34 435.34 0 011.8 7.8l.6 2.63.5 2.28c.15.73.37 1.63.48 2.01.12.38.15.78.08.9s-.74.21-1.5.22c-1.23 0-4.86.55-7.76 1.17a47.98 47.98 0 00-8.6 3.13 64.64 64.64 0 00-13.2 9c-2.22 1.92-7.9 7.6-11.15 11.16l-2.74 3c-.6.67-1.8 2.02-2.65 3a110.07 110.07 0 01-1.68 1.92c-.07.07-.72.82-1.44 1.68l-1.45 1.68c-.07.07-1.2 1.36-2.51 2.88-1.31 1.52-2.44 2.81-2.51 2.88-.08.06-.73.82-1.45 1.68a90.47 90.47 0 01-1.44 1.68 174.95 174.95 0 01-14.42 14.51 83.08 83.08 0 01-5.25 4.24c-1.58 1.18-4.97 3.32-5.28 3.32-.14 0-.48-.51-.75-1.14z" fill="url(#a)" transform="translate(-43.77 -12.16) scale(.11099)"/><path d="M505.02 225.26a163.28 163.28 0 003.2-5.28c.35-.55.64-1.07.64-1.13 0-.07.46-.86 1.03-1.75.57-.89 1.5-2.48 2.07-3.54s1.12-2.03 1.22-2.16c.22-.28.9-1.48 2.16-3.84l1.9-3.48c1.7-3.1 10.81-21.55 10.81-21.9 0-.06.54-1.26 1.2-2.66a49.04 49.04 0 001.82-4.16 177.2 177.2 0 001.41-3.26c1.2-2.73 3.49-8.44 3.49-8.72 0-.62-.37-.3-1.41 1.23a29 29 0 01-1.44 1.98c-.21.23-.7.86-1.1 1.39a14.5 14.5 0 01-.84 1.08c-.08.06-.97 1.09-1.97 2.28-3.7 4.35-10.57 10.67-13.2 12.12-1.26.7-3.03 1.48-6.55 2.87-.56.23-3.05 1.18-5.34 2.06-4.84 1.85-9.13 4.7-13.69 9.08-2.4 2.3-6.03 6.3-8.09 8.9a44.72 44.72 0 01-1.07 1.31c-.68.68-2.38 3.2-2.28 3.36.16.26 3.35 2.72 5.88 4.54.99.72 1.85 1.37 1.92 1.45.06.08.71.57 1.44 1.1a85.68 85.68 0 011.56 1.13c.38.3 2.85 2.18 3.56 2.7l4.66 3.52c2.2 1.67 4.23 3.05 4.5 3.06.36 0 .96-.78 2.51-3.28zm-49.15 50.86c.71-.36 1.32-.74 1.37-.84a.35.35 0 01.3-.18c.37 0 7.33-4.7 8.98-6.06.26-.22 1.33-1.05 2.38-1.85 4.86-3.73 11.13-9.55 16.55-15.36 4.08-4.37 12.12-14.56 12.13-15.36 0-.2-2.56-2.27-5.7-4.6a888.03 888.03 0 01-6.3-4.73c-.32-.26-3.42-2.58-6.87-5.17-6.24-4.67-7.12-5.17-7.89-4.49-.12.11-.6.34-1.07.52a55.15 55.15 0 00-3.41 1.41c-.63.28-1.2.51-1.29.51-.08 0-.51.16-.96.36l-1.63.72c-.45.2-.88.36-.96.36-.08 0-.66.23-1.29.5a95.03 95.03 0 01-3.05 1.3c-.53.22-1.15.5-1.38.62-.23.12-.52.22-.65.22s-.86.28-1.63.62c-.76.35-1.6.72-1.86.82-11.6 4.73-23.33 9.54-24.3 9.98-.7.32-1.37.57-1.5.57s-.43.1-.65.22l-1.02.46a242.09 242.09 0 01-3.06 1.27 178.8 178.8 0 00-4.3 1.8c-.41.18-.82.33-.9.33-.08 0-.66.23-1.28.51-2.21.99-2.65 1.17-2.8 1.17-.08 0-.66.23-1.28.5l-1.92.84c-.43.18-.77.42-.77.52 0 .1 1.48 1.2 3.27 2.46 1.8 1.25 3.48 2.47 3.75 2.7.27.23.56.42.64.42.09 0 .37.2.63.43s2.13 1.62 4.18 3.08A1073 1073 0 01436.04 264l4.42 3.15c2.3 1.63 4.34 3.11 4.55 3.29 1.43 1.2 8.86 6.3 9.19 6.32.21 0 .97-.29 1.68-.65zm58.2 62.3a45.6 45.6 0 008.06-3.86 23.2 23.2 0 012-1.16c.16 0 3.97-2.72 5.47-3.9 5.82-4.59 13.35-11.99 20.2-19.85a936.35 936.35 0 006.45-7.44 447.57 447.57 0 012.4-2.78l.95-1.09c12.11-13.76 17.36-18.81 24-23.12a36.43 36.43 0 0112.68-5.45c1.88-.46 2.84-.53 6.87-.53 4.7 0 4.96.04 8.76 1.1.99.27 1.06.29 3.23 1.16 2.7 1.08 8.28 4.21 10.03 5.64l2.45 1.93c2.39 1.87 6.62 5.75 11.55 10.58 4.17 4.1 4.66 4.34 3.47 1.71a150.14 150.14 0 01-2.42-5.58 138.14 138.14 0 00-1.32-3.12c-.24-.53-1.05-2.47-1.8-4.32a181.1 181.1 0 00-1.95-4.62c-.31-.7-.57-1.38-.57-1.5s-.1-.43-.21-.66c-.29-.56-.54-1.17-1.7-4.14a236.69 236.69 0 00-1.2-3 70.46 70.46 0 01-.74-1.91 74.77 74.77 0 00-.85-2.16c-.16-.4-.97-2.5-1.78-4.68a362.81 362.81 0 00-1.68-4.44 76.6 76.6 0 01-.84-2.28 72.92 72.92 0 00-.84-2.28c-.11-.26-.49-1.29-.84-2.28a273.1 273.1 0 00-2.05-5.64c-.3-.72-1.1-3.02-2.17-6.23a96.67 96.67 0 00-1.17-3.36 7.38 7.38 0 01-.32-.96c-.07-.27-.68-2.05-1.36-3.96a395.4 395.4 0 01-1.95-5.64 65.2 65.2 0 00-.93-2.64 7.5 7.5 0 01-.32-.96c-.07-.26-.68-2.04-1.36-3.96s-1.44-4.07-1.68-4.8c-.45-1.3-2.24-6.39-3.47-9.83a188.01 188.01 0 01-1-2.88c-.48-1.42-1.52-4.31-1.77-4.92a34.52 34.52 0 01-.63-1.8 8.35 8.35 0 00-.62-1.55c-.1-.12-.2-.42-.2-.66s-.1-.62-.22-.85c-.12-.23-.5-1.2-.84-2.16a191.73 191.73 0 00-2.05-5.7c-.28-.65-1.33-3.6-1.76-4.91a34.23 34.23 0 00-.65-1.8c-.58-1.45-.6-1.46-3.27-8.76a237.33 237.33 0 00-2.24-5.88 47.79 47.79 0 01-.49-1.32 42.68 42.68 0 00-.6-1.56c-.16-.4-.54-1.36-.84-2.16-.7-1.86-1-2.57-1.76-4.26a9.81 9.81 0 01-.63-1.62c0-.13-.1-.43-.22-.66-.12-.23-.38-.8-.57-1.25-4.09-9.62-8.13-16.93-11-19.93-2.34-2.43-3.76-3.19-5.93-3.17-3.38.03-6.05 3-10.08 11.22a135.8 135.8 0 00-1.77 3.72 203.22 203.22 0 01-.84 1.92 146.05 146.05 0 00-1.49 3.6l-1.2 3c-.1.27-.5 1.23-.85 2.16l-.84 2.16-.84 2.15c-.36.93-.8 2.02-.99 2.44-.18.42-.32.82-.32.9 0 .08-.23.66-.5 1.29-.29.62-.6 1.35-.72 1.61a251.2 251.2 0 01-2.86 6.48c-.36.8-1.5 3.49-2.51 6a459.07 459.07 0 01-2.17 5.28c-.18.4-.72 1.69-1.2 2.88a173.08 173.08 0 01-1.38 3.23l-.79 1.8-1.02 2.28-1.24 2.76-1.26 2.76a989.55 989.55 0 01-9.8 19.67l-1.9 3.48c-1.2 2.24-2.09 3.81-2.92 5.22-.38.64-.68 1.22-.68 1.28s-.38.71-.84 1.44-.84 1.36-.84 1.43c0 .06-.54.98-1.2 2.03a25.13 25.13 0 00-1.2 2.02c0 .07-.76 1.31-1.68 2.78a45.07 45.07 0 00-1.68 2.77c0 .2-1.31 2.14-1.5 2.22-.1.05-.18.19-.18.32 0 .5-5.45 8.6-8.86 13.16-2.28 3.05-2.26 3.03-4.26 5.4-.77.92-1.64 1.97-1.92 2.34-3.1 4.03-13.04 13.78-18.9 18.53a67.71 67.71 0 00-2.03 1.71l-.84.75 1.1.5c2.87 1.31 7.4 5.43 10.44 9.5a105.93 105.93 0 016.8 10.34c.5.63 6.02 11.43 7.18 14.04.32.72 1.05 2.3 1.62 3.52a34.64 34.64 0 011.03 2.32c0 .07.41 1.02.92 2.11s1.06 2.37 1.23 2.84c.18.46.42.94.53 1.06.1.13.2.37.2.54 0 .17.27.9.6 1.63l1.2 2.65c.33.73.6 1.43.6 1.56 0 .13.1.43.21.66.2.4.3.62 1.12 2.57.59 1.42.67 1.63 2.07 5.1.94 2.34 1.39 3.18 1.69 3.18a9.1 9.1 0 001.8-.5zm-6.28 9.95c-1.56-.57-2.08-1.22-3.23-4.05l-.44-1.08c-.14-.33-.55-1.36-.9-2.28-.37-.92-.81-2.02-1-2.44a5.17 5.17 0 01-.32-.9c0-.08-.23-.66-.5-1.28-.28-.63-.6-1.35-.7-1.62l-.6-1.44a209.93 209.93 0 00-2.34-5.64 65.98 65.98 0 00-1.24-2.94 18.5 18.5 0 01-.62-1.48c0-.06-.37-.92-.84-1.92-.46-1-.84-1.86-.84-1.92 0-.06-.44-1.06-.98-2.22a597.56 597.56 0 01-1.7-3.67c-1.7-3.73-6.4-12.85-7.18-13.95-.25-.35-.45-.71-.45-.8 0-.08-.38-.74-.84-1.46-.46-.72-.84-1.37-.84-1.44 0-.07-.12-.26-.26-.42-.14-.16-.66-.9-1.14-1.64-3.83-5.88-7.05-9.28-10.26-10.8-1-.47-1.54-.56-3.46-.54-3.5.04-5.8.8-10.55 3.54-.61.35-1.3.48-2.52.5-1.95.01-1.44.3-8.64-4.9a1833.21 1833.21 0 00-5.16-3.72l-5.17-3.72-9-6.48a6596.35 6596.35 0 01-8.98-6.47 1413.73 1413.73 0 00-5.16-3.72c-.37-.27-3.08-2.2-6.01-4.32a6238.66 6238.66 0 00-7.9-5.68c-3.11-2.23-3.68-3.02-3.67-5.16 0-1.61.47-2.53 1.7-3.4.36-.25 3.62-1.67 7.25-3.15 3.62-1.48 7.06-2.9 7.62-3.15a42.45 42.45 0 012.04-.85c.56-.2 1.58-.63 2.28-.95s1.37-.57 1.5-.57c.13 0 .42-.1.65-.22.23-.12.85-.4 1.38-.62l1.5-.62 1.08-.44a229 229 0 003.06-1.27c.33-.13.79-.34 1.01-.46s.53-.21.66-.21c.22 0 2.49-.97 3.42-1.46.23-.12.53-.22.66-.22s.8-.26 1.5-.58c.7-.32 6.34-2.65 12.54-5.18 6.2-2.53 11.6-4.74 12-4.92a114.12 114.12 0 012.04-.84 85.11 85.11 0 002.58-1.1c.7-.32 1.37-.58 1.5-.58s.43-.1.66-.2c.23-.13.68-.33 1.01-.47 1.73-.73 2.57-1.07 3-1.24 1.58-.6 3.24-1.55 3.36-1.9.07-.23.32-.63.55-.88s1-1.27 1.72-2.26c3.9-5.4 10.02-12.18 14.17-15.68a183.5 183.5 0 002.52-2.15c.26-.24 1.66-1.23 3.12-2.19a40.29 40.29 0 018.75-4.44 64.19 64.19 0 001.32-.5l3.12-1.2a53 53 0 006-2.6c2.43-1.47 8.08-6.8 11.38-10.71 6.54-7.79 20.23-27.85 26.51-38.87.77-1.35 3.7-5.7 4.77-7.08 2.5-3.23 6.35-6.67 8.92-7.97 1.63-.82 4.45-1.62 5.72-1.62 1.4 0 4.6.54 5.8.98 3.13 1.16 6.27 3.55 8.8 6.72 1.08 1.34 3.55 4.92 3.55 5.13 0 .06.36.68.8 1.38a134.4 134.4 0 015.68 11.58 103.85 103.85 0 012.27 5.28l.6 1.44.55 1.32c.2.46.98 2.46 1.73 4.43a300.92 300.92 0 002.28 5.88c.16.46.38 1.06.49 1.32l.49 1.32c.16.46.44 1.17.6 1.56.18.4.47 1.2.67 1.8.2.6.48 1.4.64 1.8.57 1.38.68 1.7 1.32 3.48.35.99.73 2.01.84 2.28.18.44 1.14 3.1 1.72 4.8.14.4.4 1.04.56 1.44s.59 1.53.93 2.52c.33.99 1.05 3.04 1.6 4.55l1.33 3.84c.2.6.45 1.3.56 1.56.11.27.38 1.02.6 1.68.23.66.5 1.42.61 1.68.25.6 1.29 3.47 1.77 4.92l1 2.88c1.58 4.38 3.1 8.73 3.98 11.4.52 1.58 1.05 3.09 1.16 3.35.12.27.27.7.34.96.06.27.67 2.05 1.35 3.96s1.7 4.88 2.28 6.6a558.18 558.18 0 002.28 6.6 638.26 638.26 0 011.68 4.8 409.78 409.78 0 003.95 10.91c.84 2.3 1.4 3.75 1.82 4.8l1.55 4.08a400.29 400.29 0 004.32 11.04c.36.92.86 2.13 1.1 2.7.25.55.45 1.08.45 1.16 0 .08.17.5.36.96l.72 1.63c.2.45.36.88.36.96 0 .08.23.66.51 1.29a98.27 98.27 0 011.46 3.41l.44 1.08.58 1.44.6 1.44.73 1.68a126.57 126.57 0 001.77 4.02c.35.77.63 1.44.63 1.5 0 .07.38.93.84 1.93.46 1 .84 1.87.84 1.92 0 .05.31.77.69 1.6l1.23 2.7a698.49 698.49 0 004.51 9.72c.57 1.2.5 3.26-.17 4.37-.79 1.3-2 1.94-3.75 1.95-1.33 0-1.6-.09-3.24-1.15-4.94-3.2-11.74-8.91-19.41-16.34-4.8-4.64-7.6-7.25-9.01-8.38a22.37 22.37 0 01-1.32-1.1c-.74-.91-8.76-5.98-9.45-5.98a.87.87 0 01-.52-.22c-.27-.26-3.32-1.27-5.1-1.7-1.77-.4-6.53-.35-8.76.1-8.07 1.67-14.94 6.63-25.96 18.71a2687.4 2687.4 0 01-2.63 2.88c-.26.28-5.1 5.84-5.98 6.86a847.96 847.96 0 01-9.36 10.79c-3.18 3.58-11.77 12.3-14.01 14.21l-2.32 2a134.89 134.89 0 01-7.32 5.63c-.52.59-5.12 3.29-8.45 4.96a42.2 42.2 0 01-10.3 3.78c-2.9.7-3.09.71-4.39.24z" fill="url(#b)" transform="translate(-43.77 -12.16) scale(.11099)"/><path d="M1.51 33.77v-.08h.07c.44-.09.63-.22.74-.52.05-.14.12-.56.16-1.04a27.92 27.92 0 00.13-2.18 7.48 7.48 0 00.03-.74l.02-.45c0-.7-.1-.89-.55-1a2.24 2.24 0 00-.23-.04c-.14-.02-.15-.03-.14-.1v-.05l1.49-.01.04.1a35.38 35.38 0 00.28.58 80.61 80.61 0 00.26.55l.26.55.25.53a105.65 105.65 0 00.37.78 45.84 45.84 0 01.27.57l.24.5.27.56c.1.24.12.26.13.26a.37.37 0 00.06-.1 53.56 53.56 0 01.34-.73l.1-.2a27.2 27.2 0 00.13-.28 53.8 53.8 0 01.32-.69 251.53 251.53 0 01.56-1.19l.1-.2.13-.28a6.94 6.94 0 00.19-.4l.13-.28.23-.49.06-.14h1.48v.06c0 .07-.01.08-.14.1-.18.02-.36.07-.47.12-.14.08-.21.2-.25.42-.01.13 0 .87.02 1.84l.03 1.38c.03 1.37.05 1.68.1 1.8.11.25.23.32.68.4.13.01.18.01.3-.02.32-.1.44-.24.65-.75l.08-.2a56.46 56.46 0 01.23-.58 47.1 47.1 0 00.25-.65 11.73 11.73 0 00.2-.5l.08-.21.1-.25a61.28 61.28 0 00.3-.78l.05-.12.07-.2.11-.28a5.78 5.78 0 01.09-.21l.17-.45c.04-.1.06-.13.11-.14a.17.17 0 01.05 0l.04.1.06.14.1.23a103.03 103.03 0 00.26.71 37.95 37.95 0 01.56 1.47l.12.31.12.32.23.63c.33.9.42 1.08.56 1.22a.9.9 0 00.34.19l.13.03.08.03v.12h-.98c-1.08 0-1 0-1-.08 0-.04 0-.04.08-.07l.14-.04a.52.52 0 01.09-.02c.04 0 .18-.07.2-.1.04-.04.04-.05.03-.15a.96.96 0 00-.03-.2 15.4 15.4 0 00-.19-.53l-.1-.28a11.36 11.36 0 00-.16-.42 4.23 4.23 0 00-.06-.15l-.02-.06h-1.77l-.03.08a20.6 20.6 0 00-.25.8 4.9 4.9 0 00-.15.58c-.02.13 0 .23.05.3.04.06.18.12.33.16.16.03.23.06.23.07a.6.6 0 000 .06v.05l-4.21-.01v-.14h.08c.13-.03.3-.06.38-.09.21-.07.3-.17.34-.42.02-.13.03-1.55 0-2.96a120.07 120.07 0 01-.03-1.77l-.05.08-.09.18-.16.34a39.42 39.42 0 01-.26.57 42.43 42.43 0 01-.31.69l-.08.16a53.21 53.21 0 00-.32.7 65.9 65.9 0 01-.24.51l-.08.19-.1.22a4.06 4.06 0 00-.15.32 3.42 3.42 0 00-.08.17l-.07.15a34.6 34.6 0 00-.27.58l-.12.27-.07.15h-.05c-.05 0-.06 0-.08-.05l-.08-.17a2.4 2.4 0 01-.12-.27l-.09-.2a8.78 8.78 0 01-.14-.3l-.12-.27a9.2 9.2 0 01-.15-.33L4.47 32a23.03 23.03 0 01-.16-.36l-.06-.12-.05-.1-.21-.48a63.8 63.8 0 01-.52-1.13 2.4 2.4 0 01-.11-.26l-.09-.18a96.49 96.49 0 00-.33-.73c0-.02-.01-.03-.02-.03a1.74 1.74 0 00-.02.28 296.3 296.3 0 01-.06 1.76 9.6 9.6 0 00.08 2.62.57.57 0 00.27.26c.11.05.38.13.51.14l.08.01v.15H1.51zm11.24-2.28l-.2-.54-.24-.62a23.38 23.38 0 00-.36-.94l-.21.55a294.65 294.65 0 01-.27.7l-.3.84a18.45 18.45 0 001.58 0zm2.34 2.29v-.06l.15-.03c.4-.06.54-.14.62-.33.06-.17.06-.2.06-2.54v-2.2l-.37.01c-.7 0-.95.09-1.15.39a3.34 3.34 0 00-.3.66c0 .02-.13.02-.13 0l.02-.3.07-1.01c.01-.13.01-.14.05-.14.02 0 .05.03.1.09.14.13-.04.12 2.09.12 2.1 0 1.88 0 2.04-.13l.1-.08h.04l.01.2a32.84 32.84 0 00.07 1.24.15.15 0 01-.06.02h-.05l-.04-.12c-.26-.7-.38-.83-.84-.92-.1-.01-.22-.02-.55-.02h-.43v2.12c0 2.3 0 2.42.07 2.6.07.2.23.28.65.34l.16.03v.12h-2.38zm3.7 0l.01-.07c.05 0 .32-.05.39-.08.12-.04.18-.08.24-.17.12-.2.12-.18.12-2.33 0-1.52 0-1.84-.02-1.98-.05-.35-.14-.46-.44-.54a2.95 2.95 0 00-.3-.05v-.12h2.18c.02.02.03.1.01.12a.74.74 0 01-.11.02c-.4.05-.53.14-.6.37-.06.15-.06.3-.06 2.2l.01 1.95c.03.25.08.35.2.43.14.1.31.12.76.11.34 0 .44-.02.64-.1.16-.06.3-.15.37-.24a4.33 4.33 0 00.44-.78c.01-.01.03-.01.07 0l.06.01-.1.54a42.72 42.72 0 00-.04.19 5.57 5.57 0 01-.14.56c-.01.01-.4.02-1.85.02h-1.84zm3.91 0v-.07l.08-.02c.16-.04.3-.1.38-.15.13-.08.25-.26.37-.55l.06-.15a4347.38 4347.38 0 00.55-1.4l.09-.23a6.28 6.28 0 00.08-.2 35.96 35.96 0 01.2-.5 177.57 177.57 0 01.3-.78 37.1 37.1 0 00.22-.57 8.84 8.84 0 00.25-.65.97.97 0 01.06-.14.22.22 0 01.06-.03l.05-.02.05.13a167.2 167.2 0 01.16.41l.06.16.06.16.19.48a12.01 12.01 0 01.15.4 45.72 45.72 0 00.16.4 109.3 109.3 0 01.54 1.46l.03.08.12.32a10.77 10.77 0 00.2.52c.1.29.21.5.31.61.1.11.22.17.49.24l.09.03-.01.11h-1.98v-.05c0-.07-.01-.07.2-.12.2-.06.25-.07.3-.13.05-.04.05-.05.05-.12 0-.08-.05-.26-.16-.57l-.14-.39a4.42 4.42 0 00-.07-.18 9.7 9.7 0 01-.1-.26 3.28 3.28 0 00-.1-.25c0-.01-.2-.02-.89-.02h-.88l-.04.11a12.28 12.28 0 00-.25.78c-.12.39-.14.5-.14.67 0 .13 0 .14.04.19.06.07.18.13.35.17.16.03.23.06.22.07a.6.6 0 000 .06v.05H22.7v-.06zm3.24-2.35a133.2 133.2 0 01-.23-.59l-.24-.64a41.76 41.76 0 01-.16-.42c-.13-.36-.15-.4-.16-.38a2.46 2.46 0 00-.08.21 25.63 25.63 0 01-.18.48 121.9 121.9 0 00-.38 1.02c-.1.24-.13.35-.13.37 0 .01.17.02.8.02h.78zm2.32 2.4l-.01-.06v-.05l.14-.03c.18-.03.34-.08.4-.12.11-.07.17-.2.2-.41.03-.2.03-3.82 0-4.02-.03-.28-.1-.4-.26-.47a1.5 1.5 0 00-.3-.08c-.13-.02-.13-.02-.12-.08v-.06h1.11c1.13-.01 1.36 0 1.6.04.65.12 1 .42 1.08.95a.97.97 0 010 .39 1.02 1.02 0 01-.29.54 1.7 1.7 0 01-.67.43.5.5 0 00-.11.04l.13.03c.34.06.66.22.9.42.16.15.3.39.36.61.04.18.04.54 0 .7-.06.22-.15.4-.27.54-.32.39-.81.6-1.53.67-.18.02-2.35.03-2.36.02zm2.47-.22c.19-.04.28-.08.42-.17.29-.19.46-.48.5-.9.06-.47-.07-.89-.37-1.17a1.31 1.31 0 00-.62-.32c-.2-.05-.37-.07-.7-.06h-.29V32c0 1.02 0 1.19.05 1.33.05.18.16.27.4.3.09.02.52 0 .61-.02zm-.22-2.82c.39-.07.63-.23.75-.5.09-.18.1-.28.1-.56 0-.18 0-.26-.02-.33a1.07 1.07 0 00-.17-.38.98.98 0 00-.6-.37 3.03 3.03 0 00-.81 0c-.1.04-.1 0-.1 1.14 0 .56.01 1.02.02 1.03.01.01.74 0 .83-.02zm2.63-.95a.64.64 0 01-.51-.78.63.63 0 01.87-.43.8.8 0 01.28.24.68.68 0 01.07.5.65.65 0 01-.47.46.48.48 0 01-.24 0zm.2-.1a.42.42 0 00.23-.12.57.57 0 00-.1-.9c-.09-.05-.1-.05-.23-.05-.17 0-.24.03-.35.13a.5.5 0 00-.15.27.46.46 0 000 .28c.09.3.34.46.6.4zm-.4-.18c0-.01.01-.03.04-.04l.05-.03v-.28l-.01-.28a.12.12 0 00-.05-.03c-.08-.03-.02-.05.18-.05.17 0 .2 0 .26.03.12.06.12.23 0 .3a4.9 4.9 0 01-.05.04c-.01 0 .14.24.18.28a.28.28 0 01.05.06c0 .01-.08.01-.14 0a.18.18 0 01-.07-.04.93.93 0 01-.1-.18c0-.03-.07-.09-.1-.09s-.03 0-.03.11c0 .1 0 .12.03.14.01.02.03.03.05.03s.02 0 .01.01c0 .03-.29.04-.3.02zm.33-.36c.06-.02.1-.1.08-.17 0-.1-.04-.13-.13-.13h-.06v.14a1 1 0 000 .15c0 .02.05.03.1 0z"/></g></svg>