<svg xmlns="http://www.w3.org/2000/svg" viewBox="0 0 128 128"><path d="M85.99 76.08c.63-5.27.44-6.04 4.36-5.19l1 .1c3 .13 6.95-.5 9.27-1.57 4.98-2.31 7.94-6.18 3.02-5.16-11.21 2.31-11.98-1.49-11.98-1.49 11.84-17.57 16.8-39.87 12.52-45.33C92.52 2.54 72.35 9.59 72 9.77l-.1.02c-2.22-.46-4.7-.73-7.49-.78-5.07-.08-8.92 1.33-11.84 3.55 0 0-36-14.83-34.32 18.65.36 7.12 10.2 53.88 21.96 39.75 4.3-5.16 8.44-9.53 8.44-9.53a10.9 10.9 0 007.12 1.82l.2-.17c-.06.64-.04 1.27.08 2-3.03 3.4-2.14 3.99-8.2 5.23-6.11 1.26-2.52 3.5-.17 4.1 2.85.7 9.43 1.72 13.89-4.51l-.18.7c1.19.96 1.1 6.83 1.27 11.03.17 4.2.45 8.12 1.3 10.43.87 2.31 1.88 8.26 9.83 6.56 6.64-1.43 11.73-3.48 12.19-22.55"/><path d="M71.2 102.77c-3.51 0-5.8-1.36-7.2-2.67-2.1-1.99-2.93-4.54-3.42-6.06l-.22-.64c-1-2.7-1.34-6.6-1.54-11.61l-.07-2.36-.07-2.14c-1.25.6-2.59 1.02-4 1.26-2.48.43-5.15.29-7.93-.4-1.96-.5-4-1.51-5.16-3.08-3.38 2.96-6.6 2.56-8.37 1.97-3.1-1.03-5.88-3.94-8.49-8.89a79.86 79.86 0 01-5.35-13.64c-2.94-9.64-4.8-19.78-4.97-23.11-.52-10.43 2.28-17.88 8.34-22.16 9.55-6.75 24.03-2.78 29.3-.98 3.55-2.14 7.72-3.18 12.44-3.1 2.53.04 4.94.26 7.18.66A41.3 41.3 0 0183.9 4.1c9.73.11 17.8 3.9 23.31 10.96 3.95 5.04 2 15.61.48 21.47a95.96 95.96 0 01-10.43 24.62c1.24.01 3.04-.14 5.6-.67 5.06-1.04 6.54 1.67 6.94 2.88 1.6 4.87-5.38 8.54-7.56 9.56-2.8 1.3-7.34 2.08-11.07 1.91l-.16-.01-.98-.09-.1.82-.1.8c-.24 9.66-1.62 15.78-4.46 19.83-2.98 4.24-7.12 5.43-10.77 6.2-1.24.27-2.37.39-3.4.39zM63.8 67.6c2.28 1.81 2.48 5.23 2.65 11.62l.07 2.26c.09 2.13.3 7.13 1.07 9.24l.32.93c.87 2.67 1.3 4 5.08 3.2 3.17-.68 4.8-1.29 6.07-3.1 1.85-2.64 2.88-7.94 3.07-15.77l3.86.1-3.83-.46.11-.96c.37-3.15.63-5.42 2.74-6.93 1.69-1.2 3.61-1.09 5.14-.81a5.76 5.76 0 01-2.27-3.38l-.32-1.58.9-1.34a87.78 87.78 0 0011.77-26.02c2.34-9.06 1.62-13.87.91-14.78-9.44-12.07-25.83-7.1-27.54-6.52l-.29.15-1.45.27-.74-.15a36.4 36.4 0 00-6.76-.7c-3.83-.07-6.92.84-9.46 2.76l-1.75 1.34-2.05-.85c-4.35-1.78-17.16-5.36-23.91-.58-3.75 2.66-5.46 7.87-5.08 15.47.12 2.52 1.83 12.03 4.65 21.25 3.89 12.75 7.42 16.98 8.9 17.47.26.09.93-.43 1.59-1.23 4.33-5.2 8.44-9.54 8.61-9.72l2.23-2.35 2.7 1.8a7.13 7.13 0 003.52 1.2l6.43-5.48-.93 9.5c-.02.22-.03.5.05 1.05l.28 1.8-1.21 1.36-.14.16 3.53 1.63 1.49-1.85z"/><path fill="#336791" d="M103.65 64.26c-11.22 2.31-12-1.49-12-1.49 11.85-17.57 16.8-39.87 12.53-45.33C92.52 2.54 72.35 9.59 72 9.77l-.1.02c-2.22-.46-4.7-.73-7.49-.78-5.07-.08-8.92 1.33-11.84 3.55 0 0-36-14.83-34.32 18.65.36 7.12 10.2 53.88 21.96 39.75 4.29-5.16 8.44-9.53 8.44-9.53a10.9 10.9 0 007.11 1.82l.2-.17c-.06.64-.03 1.27.09 2-3.03 3.4-2.14 3.99-8.2 5.23-6.12 1.26-2.52 3.5-.17 4.1 2.85.7 9.43 1.72 13.88-4.51l-.17.7c1.18.96 2.01 6.19 1.87 10.93s-.23 8 .7 10.53c.94 2.54 1.87 8.26 9.83 6.56 6.64-1.43 10.09-5.12 10.57-11.27.34-4.38 1.1-3.73 1.15-7.65l.62-1.85c.71-5.93.12-7.85 4.21-6.96l1 .1c3 .13 6.95-.5 9.27-1.57 4.98-2.31 7.94-6.18 3.03-5.16z"/><path fill="#fff" d="M71.61 100.4c-6.63 0-8.73-5.26-9.6-7.4-1.25-3.15-1.52-15.36-1.24-25.38a1.29 1.29 0 012.57.07c-.32 11.56.14 22.02 1.07 24.35 1.45 3.63 3.65 6.81 9.88 5.48 5.92-1.27 8.13-3.52 9.12-9.23.76-4.4 2.25-16.88 2.44-19.34a1.28 1.28 0 112.56.19c-.2 2.56-1.68 15.03-2.47 19.58-1.16 6.76-4.17 9.82-11.1 11.31-1.19.25-2.26.36-3.23.36zM35.66 74.74c-.63 0-1.2-.12-1.7-.28-4.31-1.44-8.41-8.45-12.2-20.85-2.88-9.44-4.7-19.29-4.86-22.49-.48-9.49 1.97-16.2 7.26-19.96 10.48-7.42 28.1-.35 28.85-.05a1.28 1.28 0 01-.97 2.38c-.17-.07-17.07-6.84-26.4-.23-4.52 3.21-6.6 9.18-6.18 17.73.14 2.7 1.84 12.31 4.76 21.87 3.38 11.07 7.22 18.05 10.55 19.16.52.17 2.1.7 4.38-2.03 4.27-5.14 8.2-9.24 8.24-9.28a1.29 1.29 0 011.85 1.78c-.04.04-3.9 4.08-8.11 9.15-2 2.4-3.91 3.1-5.47 3.1zm55.92-10.83a1.28 1.28 0 01-1.06-2c11.96-17.77 16.17-39.23 12.57-43.83-4.53-5.79-10.93-8.81-19.01-8.98a35.67 35.67 0 00-11.53 1.66l-.2.08a1.29 1.29 0 01-1.1-2.31l.35-.15h-.01.01a37.3 37.3 0 0112.14-1.86c8.95.1 16.34 3.54 21.37 9.98 2.39 3.04 2.39 10.05.02 19.24a93.14 93.14 0 01-12.48 27.6c-.25.37-.66.57-1.07.57zm.61 8.22c-2.04 0-3.88-.28-4.97-.94a2.57 2.57 0 01-1.37-2.08c-.31-5.4 2.67-6.35 4.2-6.78-.22-.32-.52-.7-.83-1.08-.9-1.11-2.1-2.63-3.04-4.9a31.9 31.9 0 00-1.14-2.13c-2.88-5.17-8.88-15.93-5.03-21.44 1.79-2.55 5.34-3.55 10.57-2.99-1.54-4.69-8.87-19.36-26.26-19.64-5.23-.09-9.52 1.52-12.74 4.77-7.22 7.3-6.96 20.48-6.96 20.61a1.28 1.28 0 11-2.57.07c-.01-.59-.28-14.43 7.7-22.49C53.48 9.35 58.4 7.5 64.36 7.6c11.13.18 18.3 5.84 22.34 10.55 4.41 5.14 6.58 10.8 6.75 12.7.14 1.4-.87 1.68-1.08 1.72l-.46.01c-5.13-.82-8.43-.25-9.79 1.7-2.93 4.19 2.74 14.36 5.17 18.7.61 1.11 1.06 1.92 1.26 2.41a16.7 16.7 0 002.67 4.27c.74.92 1.37 1.71 1.6 2.64.1.19 1.6 2.4 10.49.57 2.23-.46 3.56-.07 3.97 1.17.8 2.43-3.7 5.26-6.2 6.42-2.24 1.04-5.8 1.7-8.89 1.7zm-3.78-3.23c.28.28 1.69.77 4.61.65 2.6-.12 5.34-.68 6.98-1.44a14.7 14.7 0 004.23-2.82l-.4.08c-5.68 1.17-9.7 1.02-11.95-.47-.16-.1-.3-.21-.43-.32-.24.1-.47.16-.63.2-1.27.36-2.59.73-2.41 4.12zm-36.7 7.17c-1.4 0-2.9-.19-4.41-.57-1.57-.4-4.22-1.57-4.18-3.52.04-2.18 3.22-2.83 4.41-3.08 4.31-.89 4.6-1.24 5.94-2.95.4-.5.88-1.12 1.55-1.87.99-1.1 2.07-1.67 3.22-1.67.8 0 1.45.27 1.88.45a5.53 5.53 0 013 3.6 4.61 4.61 0 01-.58 4.03 12.83 12.83 0 01-10.83 5.58zM45.9 72.1c.38.3 1.16.7 2.02.92 1.32.33 2.59.5 3.8.5 3.65 0 6.6-1.52 8.73-4.51.44-.63.31-1.42.2-1.83-.26-.88-.88-1.67-1.52-1.93a2.5 2.5 0 00-.9-.26c-.14 0-.57 0-1.3.82-.6.68-1.05 1.24-1.44 1.74-1.68 2.13-2.45 2.85-7.44 3.88-1.22.25-1.84.5-2.15.67zm9.88-5.92c-.63 0-1.17-.46-1.27-1.1a6.03 6.03 0 01-.07-.64 12.56 12.56 0 01-8.82-3.97 14.36 14.36 0 01-3.79-12.02c.68-4.86.43-9.15.29-11.46-.04-.64-.07-1.1-.06-1.42 0-.4 0-1.49 3.61-3.32a20.1 20.1 0 016.66-2.07c4.66-.48 7.72 1.6 8.64 5.84 2.48 11.46.2 16.52-1.47 20.23-.31.68-.6 1.34-.84 1.97l-.2.55c-.88 2.36-1.64 4.4-1.41 5.93.1.7-.37 1.35-1.08 1.46l-.2.02zM44.63 35.92l.05.92c.15 2.4.41 6.85-.3 11.97-.52 3.7.6 7.3 3.09 9.89a10 10 0 007.2 3.17h.06c.3-1.25.79-2.57 1.32-4l.2-.55c.27-.71.58-1.4.9-2.13 1.61-3.56 3.6-8 1.3-18.63-.45-2.1-1.55-3.33-3.37-3.73-3.72-.82-9.28 1.98-10.45 3.1zm7.76-.54c-.06.45.83 1.66 2 1.83 1.17.16 2.17-.79 2.23-1.24.06-.46-.83-.96-2-1.12-1.17-.16-2.17.07-2.23.53zm2.27 2.27l-.33-.02a3.09 3.09 0 01-1.96-1.22c-.17-.23-.46-.69-.4-1.1.08-.59.8-.94 1.93-.94.25 0 .51.02.78.06.61.08 1.19.26 1.61.5.73.4.79.86.75 1.1-.09.65-1.13 1.62-2.38 1.62zm-1.84-2.2c.03.28.73 1.2 1.63 1.33l.2.02c.84 0 1.47-.66 1.54-.87-.08-.15-.61-.51-1.63-.65a4.72 4.72 0 00-.66-.05c-.65 0-1 .14-1.08.22zm35.12-1c.06.46-.84 1.67-2 1.83-1.17.16-2.17-.79-2.24-1.24-.06-.45.84-.95 2-1.12 1.17-.16 2.17.08 2.24.53zm-2.27 2.06c-1.13 0-2.1-.87-2.18-1.44-.09-.68 1.03-1.2 2.19-1.36.25-.04.5-.05.75-.05 1 0 1.65.29 1.72.76.04.3-.2.78-.6 1.2a2.8 2.8 0 01-1.58.87l-.3.02zm.76-2.42c-.23 0-.46.01-.7.04-1.16.16-1.85.63-1.81.88.04.28.78 1.07 1.75 1.07l.24-.01c.63-.1 1.1-.5 1.33-.74.36-.38.5-.73.48-.85-.02-.16-.45-.4-1.3-.4zm3.19 26.45a1.29 1.29 0 01-1.07-2c2.74-4.09 2.24-8.26 1.75-12.29-.2-1.72-.42-3.5-.36-5.2.06-1.75.28-3.2.5-4.6.25-1.65.49-3.22.39-5.08a1.29 1.29 0 012.57-.14c.11 2.13-.16 3.9-.43 5.62-.2 1.32-.41 2.69-.46 4.29-.05 1.5.14 3.1.35 4.8.51 4.3 1.1 9.15-2.17 14.03-.25.37-.66.57-1.07.57z"/><path d="M2.83 103.18c1.1-.18 2.53-.33 4.35-.33 2.23 0 3.87.52 4.91 1.45.96.83 1.54 2.1 1.54 3.67 0 1.59-.47 2.83-1.36 3.74-1.2 1.28-3.14 1.93-5.35 1.93-.68 0-1.3-.03-1.82-.16v7.02H2.84v-17.32zm2.27 8.45c.5.13 1.12.19 1.87.19 2.73 0 4.4-1.33 4.4-3.75 0-2.31-1.64-3.43-4.14-3.43a9.5 9.5 0 00-2.13.18v6.81zm22.23 2.47c0 4.66-3.23 6.69-6.27 6.69-3.4 0-6.03-2.5-6.03-6.48 0-4.21 2.76-6.68 6.24-6.68 3.61 0 6.06 2.63 6.06 6.47zm-9.99.13c0 2.76 1.59 4.84 3.83 4.84 2.18 0 3.82-2.05 3.82-4.89 0-2.13-1.07-4.83-3.77-4.83s-3.88 2.5-3.88 4.88zm12.56 3.93a6 6 0 003.02.91c1.66 0 2.44-.83 2.44-1.87 0-1.1-.65-1.7-2.34-2.32-2.26-.8-3.33-2.05-3.33-3.56 0-2.03 1.64-3.69 4.34-3.69 1.28 0 2.4.36 3.1.78l-.57 1.66a4.9 4.9 0 00-2.58-.72c-1.35 0-2.1.78-2.1 1.71 0 1.04.75 1.51 2.4 2.13 2.17.84 3.3 1.93 3.3 3.8 0 2.21-1.72 3.77-4.71 3.77a7.18 7.18 0 01-3.54-.86l.57-1.74zm13.37-13.86v3.62h3.27v1.74h-3.27v6.78c0 1.56.44 2.45 1.71 2.45.6 0 1.04-.08 1.33-.16l.1 1.72a5.6 5.6 0 01-2.02.3c-1.07 0-1.93-.33-2.48-.95-.64-.68-.88-1.8-.88-3.28v-6.86h-1.95v-1.75h1.95v-3.01l2.24-.6zm16.53 3.62c-.05.9-.1 1.92-.1 3.45v7.31c0 2.89-.57 4.65-1.8 5.75-1.22 1.14-2.99 1.5-4.57 1.5-1.51 0-3.17-.36-4.19-1.04l.57-1.74a7.1 7.1 0 003.7 1c2.34 0 4.05-1.23 4.05-4.4v-1.4h-.05a4.5 4.5 0 01-4 2.1c-3.12 0-5.36-2.65-5.36-6.14 0-4.26 2.78-6.68 5.67-6.68 2.18 0 3.38 1.14 3.92 2.18h.06l.1-1.9h2zm-2.36 4.96a3.3 3.3 0 00-3.33-3.46c-2.19 0-3.75 1.85-3.75 4.76 0 2.47 1.25 4.53 3.72 4.53 1.4 0 2.68-.89 3.17-2.34.13-.4.19-.84.19-1.23v-2.26zm5.9-1.04c0-1.48-.03-2.75-.1-3.92h2l.07 2.47h.1c.58-1.7 1.96-2.76 3.5-2.76.25 0 .43.03.64.08v2.16a3.43 3.43 0 00-.78-.08c-1.61 0-2.76 1.22-3.07 2.94-.05.3-.1.67-.1 1.06v6.71h-2.26v-8.66zm9.51 2.78c.06 3.1 2.03 4.37 4.32 4.37 1.64 0 2.62-.28 3.48-.65l.4 1.64c-.81.36-2.2.78-4.2.78-3.87 0-6.18-2.55-6.18-6.34 0-3.8 2.23-6.8 5.9-6.8 4.1 0 5.2 3.62 5.2 5.94 0 .46-.05.83-.08 1.06h-8.84zm6.71-1.63c.03-1.46-.6-3.72-3.17-3.72-2.31 0-3.33 2.13-3.51 3.72h6.68z"/><path fill="#336791" d="M84.37 117.74a8.02 8.02 0 004.06 1.15c2.31 0 3.66-1.22 3.66-3 0-1.63-.93-2.57-3.3-3.48-2.86-1.01-4.63-2.5-4.63-4.96 0-2.73 2.26-4.76 5.67-4.76 1.8 0 3.1.42 3.87.86l-.62 1.84a6.98 6.98 0 00-3.33-.83c-2.39 0-3.3 1.43-3.3 2.63 0 1.64 1.07 2.44 3.48 3.38 2.97 1.14 4.48 2.57 4.48 5.15 0 2.7-2 5.04-6.14 5.04-1.69 0-3.54-.5-4.47-1.12l.57-1.9zm27.59 5.33a94.85 94.85 0 01-6.71-2.02c-.37-.13-.73-.26-1.07-.26-4.16-.16-7.72-3.23-7.72-8.87 0-5.62 3.43-9.23 8.17-9.23 4.75 0 7.85 3.7 7.85 8.87 0 4.5-2.08 7.38-5 8.4v.1c1.75.44 3.65.86 5.13 1.12l-.65 1.9zm-1.88-11.41c0-3.51-1.81-7.13-5.53-7.13-3.83 0-5.7 3.54-5.67 7.34-.03 3.72 2.03 7.07 5.56 7.07 3.62 0 5.64-3.28 5.64-7.28zm5.33-8.68h2.27v15.62h7.49v1.9h-9.76v-17.52z"/></svg>