<svg xmlns="http://www.w3.org/2000/svg" xmlns:xlink="http://www.w3.org/1999/xlink" viewBox="0 0 80 92" fill="#fff" fill-rule="evenodd" stroke="#000" stroke-linecap="round" stroke-linejoin="round"><use xlink:href="#C" x=".5" y=".5"/><defs><linearGradient id="A" x1="100.00%" y1="38.87%" x2="0.00%" y2="38.08%"><stop offset="0%" stop-color="#366a96"/><stop offset="100%" stop-color="#3679b0"/></linearGradient><linearGradient id="B" x1="100.00%" y1="50.00%" x2="-97.55%" y2="50.00%"><stop offset="0%" stop-color="#ffc836"/><stop offset="100%" stop-color="#ffe873"/></linearGradient></defs><symbol id="C" overflow="visible"><g stroke="none" fill-rule="nonzero"><path d="M9.49 77.006c0-3.742-1.09-5.664-3.274-5.768a6.28 6.28 0 0 0-2.541.408c-.66.232-1.1.458-1.335.69v8.932c1.396.858 2.637 1.255 3.718 1.2 2.288-.148 3.433-1.973 3.433-5.453zm2.693.154c0 1.9-.456 3.48-1.372 4.735-1.022 1.42-2.44 2.15-4.25 2.192-1.366.043-2.772-.376-4.22-1.252v8.118L0 90.136v-18.02c.384-.46.88-.858 1.478-1.2 1.394-.794 3.088-1.203 5.08-1.222l.034.033c1.822-.022 3.225.71 4.203 2.192.92 1.36 1.372 3.103 1.372 5.235zm14.3 5.33c0 2.55-.262 4.314-.784 5.297s-1.524 1.767-3 2.35c-1.197.46-2.5.712-3.88.755l-.386-1.443c1.412-.19 2.406-.376 2.982-.564 1.135-.376 1.913-.944 2.342-1.715.343-.63.512-1.83.512-3.604v-.596c-1.6.712-3.28 1.064-5.035 1.064a4.69 4.69 0 0 1-3.046-1.064c-.984-.774-1.475-1.756-1.475-2.946v-9.536l2.342-.784v9.6c0 1.024.338 1.813 1.015 2.367s1.544.82 2.626.8 2.224-.43 3.446-1.222V70.05h2.342v12.442zm9.144 1.473l-.772.033c-1.324 0-2.357-.31-3.095-.926s-1.104-1.473-1.104-2.562V71.49h-1.604v-1.44h1.604v-3.826l2.34-.815v4.64h2.632v1.44h-2.625v8.955c0 .86.236 1.458.707 1.824.405.293 1.048.46 1.924.504v1.2zm14.177-.19h-2.342V74.94c0-.9-.215-1.673-.643-2.32a2.35 2.35 0 0 0-2.062-1.097c-1.074 0-2.416.553-4.027 1.66v10.593H38.4V62.654l2.342-.72v9.61c1.496-1.064 3.13-1.598 4.906-1.598 1.24 0 2.245.408 3.013 1.222s1.155 1.83 1.155 3.04v9.558zm12.448-7.12c0-1.438-.28-2.625-.835-3.564-.66-1.145-1.688-1.748-3.077-1.8-2.567.146-3.848 1.944-3.848 5.4 0 1.58.257 2.9.805 3.96.686 1.35 1.715 2.016 3.1 1.993 2.578-.02 3.866-2.01 3.866-5.97zm2.573.016c0 2.046-.535 3.75-1.604 5.11-1.175 1.523-2.8 2.287-4.872 2.287-2.054 0-3.656-.772-4.803-2.287-1.048-1.36-1.57-3.062-1.57-5.11 0-1.924.566-3.543 1.698-4.86 1.197-1.398 2.77-2.1 4.714-2.1s3.528.702 4.748 2.1c1.132 1.317 1.698 2.935 1.698 4.86zm13.415 7.112H75.9v-9.337c0-1.024-.315-1.824-.945-2.4s-1.47-.852-2.518-.83c-1.112.02-2.17.376-3.174 1.064v11.494H66.92V71.988c1.347-.96 2.588-1.585 3.72-1.887 1.07-.273 2.01-.408 2.824-.408a7.41 7.41 0 0 1 1.57.158c.92.208 1.667.594 2.245 1.16a3.03 3.03 0 0 1 .963 2.256v10.5z" fill="#646464"/><path d="M21.458 7.636c0-3.93 1.078-6.066 7.027-7.084 4.04-.692 9.22-.78 14.05 0 3.816.616 7.027 3.394 7.027 7.084v12.962c0 3.802-3.118 6.916-7.027 6.916h-14.05c-4.768 0-8.787 3.975-8.787 8.468v6.22h-4.83c-4.086 0-6.465-2.88-7.465-6.91-1.348-5.415-1.29-8.64 0-13.828 1.12-4.524 4.695-6.91 8.782-6.91h19.328v-1.73H21.458V7.636z" fill="url(#A)"/><path d="M49.563 49.118c0 3.93-3.488 5.92-7.027 6.91-5.325 1.496-9.6 1.267-14.05 0-3.717-1.06-7.027-3.22-7.027-6.91V36.155c0-3.73 3.18-6.916 7.027-6.916h14.05c4.68 0 8.787-3.95 8.787-8.64v-6.046h5.268c4.09 0 6.018 2.972 7.027 6.91 1.405 5.47 1.468 9.563 0 13.828-1.42 4.143-2.94 6.91-7.027 6.91H35.514v1.73h14.05v5.185z" fill="url(#B)"/><path d="M24.972 6.776c0-1.435 1.176-2.596 2.634-2.596 1.452 0 2.634 1.16 2.634 2.596s-1.182 2.6-2.634 2.6-2.634-1.16-2.634-2.6zm15.812 43.202c0-1.43 1.182-2.6 2.634-2.6s2.634 1.16 2.634 2.6-1.176 2.596-2.634 2.596c-1.452 0-2.634-1.16-2.634-2.596z"/></g></symbol></svg>