<svg viewBox="0 0 339.3 279.22" xmlns="http://www.w3.org/2000/svg"><style>.st5{opacity:.53}.st6{fill:#fff}.st7{fill:#bec0c2}</style><switch transform="translate(-123.2 -265.08)"><g><path d="M134.1 510.6c.1 3.1 1.6 8.9 11.6 8.9 5.4 0 11.5-1.3 11.5-7.1 0-4.3-4.1-5.4-9.9-6.8l-5.9-1.4c-8.9-2.1-17.4-4.1-17.4-16.1 0-6.1 3.3-16.9 21.1-16.9 16.8 0 21.3 11 21.4 17.7h-11c-.3-2.4-1.2-8.3-11.2-8.3-4.4 0-9.6 1.6-9.6 6.6 0 4.3 3.5 5.2 5.8 5.7l13.4 3.3c7.5 1.8 14.4 4.9 14.4 14.8 0 16.5-16.8 18-21.6 18-20 0-23.5-11.5-23.5-18.3h10.9zm33.6-38h12.2c7 30 7.7 33.9 8.7 40.1h.2c1-5.7 1.8-11.3 7.6-40.1h12.2c6.4 30.1 7 33 8.2 40.1h.2c.9-5.2 1.8-9.9 8.9-40.1h11.6l-15.4 54.9h-11c-5.7-26.9-6.7-32.3-8.5-42.8h-.2c-1.7 10.5-2.6 14.5-8.5 42.8h-10.7zm84.3 54.9h-11.5v-54.9H252zm29.4 0H274v-54.9h24.7c10.2 0 16.3 6.6 16.3 15.4 0 7.6-4.4 16.3-16.3 16.3h-17.3zm0-29.5h14.8c6.7 0 11.2-2.4 11.2-9.9 0-7-4.7-9.2-10.9-9.2h-15.1zm43.5 29.5h-6.7v-40h6.3v6.7h.2c2.7-4.7 6.2-7.8 11.2-7.8.8 0 1.2.1 1.8.2v7h-2.5c-6.3 0-10.2 4.9-10.2 10.7v23.2zm31-41.1c12.8 0 18.6 10.8 18.6 21.1s-5.8 21.1-18.6 21.1-18.6-10.8-18.6-21.1c0-10.4 5.8-21.1 18.6-21.1zm0 36.4c9.6 0 11.6-9.9 11.6-15.3 0-5.3-2-15.3-11.6-15.3s-11.6 9.9-11.6 15.3c0 5.3 2 15.3 11.6 15.3zm28.5 4.7h-6.7v-54.9h6.7zm21.8-41.1c12.8 0 18.6 10.8 18.6 21.1s-5.8 21.1-18.6 21.1-18.6-10.8-18.6-21.1c0-10.4 5.8-21.1 18.6-21.1zm0 36.4c9.6 0 11.6-9.9 11.6-15.3 0-5.3-2-15.3-11.6-15.3s-11.6 9.9-11.6 15.3c0 5.3 2 15.3 11.6 15.3zm56.3 1.4c0 5.7-.1 20.1-18.6 20.1-4.7 0-14-1.3-15.3-11.9h6.7c1.2 6.3 7.4 6.3 9 6.3 11.6 0 11.4-9.3 11.4-14.1V523c-1.9 3.2-5.4 5.7-10.8 5.7-13.6 0-17.6-12.8-17.6-22.3 0-11.2 6-20 16.7-20 7.3 0 10.4 4.6 12.1 7v-5.9h6.3v36.7zm-17.3-1.4c4.3 0 10.9-2.8 10.9-13.5 0-6.5-1.1-17-10.8-17-10.4 0-10.9 9.9-10.9 15 0 8.9 3.5 15.5 10.8 15.5z"/><radialGradient id="g" cx="1745.8" cy="-3068.5" r="127.81" gradientTransform="rotate(-42.27 5401.1 570.94)" gradientUnits="userSpaceOnUse"><stop stop-color="#fff" offset="0"/><stop stop-color="#f9f9f9" offset=".17"/><stop stop-color="#eeefef" offset=".34"/><stop stop-color="#dddedf" offset=".52"/><stop stop-color="#c5c7c9" offset=".69"/><stop stop-color="#afb1b4" offset=".82"/></radialGradient><path d="M364.2 297.1c36.3 40 33.4 101.8-6.6 138.1s-101.8 33.4-138.1-6.6-33.4-101.8 6.6-138.1c39.9-36.3 101.7-33.4 138.1 6.6z" fill="url(#g)"/><radialGradient id="h" cx="225.33" cy="442.18" r="108.64" gradientTransform="matrix(1.0722 0 0 1.1662 -24.7 -176.07)" gradientUnits="userSpaceOnUse"><stop stop-color="#fbfeff" offset="0"/><stop stop-color="#e9edf5" offset=".08"/><stop stop-color="#c3cfe4" offset=".23"/><stop stop-color="#8ea8cc" offset=".43"/><stop stop-color="#4f7daf" offset=".66"/><stop stop-color="#336fa5" offset=".75"/><stop stop-color="#2a6799" offset=".79"/><stop stop-color="#06537e" offset=".87"/><stop stop-color="#003657" offset=".98"/><stop stop-color="#003152" offset=".99"/></radialGradient><path d="M319.3 295.2c-10.7-9.5-26.7-16.3-45.4-16.3-34.1 0-67.5 26-70.1 76.8-2.8 54.5 33.2 89.8 83.8 89.8 75 0 116.4-68.3 70-142.4 32.6 74-3.7 120.7-50.5 120.7-38 0-67.1-25.5-67.1-72.3 0-67.5 50.6-72.2 79.3-56.3z" fill="url(#h)"/><radialGradient id="i" cx="258.56" cy="326.4" r="115.9" gradientTransform="matrix(1 0 0 1.0618 0 -10.8)" gradientUnits="userSpaceOnUse"><stop stop-color="#ffd640" offset="0"/><stop stop-color="#ed1c24" offset=".67"/><stop stop-color="#760000" offset=".99"/></radialGradient><path d="M338.6 323.8c-2-6.6-4.5-19.5 4.4-27 0 0-17.2-4.1-26.8 10.7-8-3.6-16.8-5.5-26-5.5-9.3 0-18.2 2-26.2 5.6-9.6-14.9-26.9-10.8-26.9-10.8 9.1 7.7 6.4 21 4.3 27.4a73.41 73.41 0 00-18.6 49.2c0 15.2 9.8 32.4 11.7 55.6l12.4-10.7s14.8 10 43.4 10 43.4-10 43.4-10l12.4 10.7c2-23.1 11.7-40.4 11.7-55.6-.2-19.2-7.5-36.7-19.2-49.6z" fill="url(#i)"/><radialGradient id="j" cx="265.86" cy="433.59" r="14.55" gradientUnits="userSpaceOnUse"><stop stop-color="#dedfe0" offset="0"/><stop stop-color="#dadcdd" offset=".15"/><stop stop-color="#d0d2d3" offset=".31"/><stop stop-color="#bfc1c3" offset=".47"/><stop stop-color="#a8aaac" offset=".63"/><stop stop-color="#8b8d90" offset=".8"/><stop stop-color="#6a6b6d" offset=".96"/><stop stop-color="#5f6062" offset="1"/></radialGradient><path d="M254.9 445.7c0-6.5 5.1-11.7 11.3-11.7s11.3 5.2 11.3 11.7v.4c2.4-2.8 3.9-6.4 3.9-10.3 0-8.6-7-15.6-15.6-15.6a15.62 15.62 0 00-10.9 26.8c.1-.4 0-.8 0-1.3z" fill="url(#j)"/><radialGradient id="k" cx="313.21" cy="433.59" r="14.55" gradientUnits="userSpaceOnUse"><stop stop-color="#dedfe0" offset="0"/><stop stop-color="#dadcdd" offset=".15"/><stop stop-color="#d0d2d3" offset=".31"/><stop stop-color="#bfc1c3" offset=".47"/><stop stop-color="#a8aaac" offset=".63"/><stop stop-color="#8b8d90" offset=".8"/><stop stop-color="#6a6b6d" offset=".96"/><stop stop-color="#5f6062" offset="1"/></radialGradient><path d="M324.1 445.7c0-6.5-5.1-11.7-11.3-11.7-6.3 0-11.3 5.2-11.3 11.7v.4c-2.4-2.8-3.9-6.4-3.9-10.3 0-8.6 7-15.6 15.6-15.6a15.62 15.62 0 0110.9 26.8z" fill="url(#k)"/><path d="M238.3 379.6c-.9 4.7-6.8 6.1-6.8 6.1s-4.9-3.6-4-8.3c-1.2 5.8 3.1 12.5 3.1 12.5s6.6-4.4 7.7-10.3zM250 382c-.9 4.7-6.8 6.1-6.8 6.1s-4.9-3.6-3.9-8.3c-1.2 5.8 3.1 12.5 3.1 12.5s6.4-4.5 7.6-10.3zm-8.3 10.5c-.9 4.7-6.8 6.1-6.8 6.1s-4.9-3.6-4-8.3c-1.2 5.8 3.1 12.5 3.1 12.5s6.6-4.4 7.7-10.3zm11.7 2.4c-.9 4.7-6.8 6.1-6.8 6.1s-4.9-3.6-4-8.3c-1.2 5.8 3.1 12.5 3.1 12.5s6.5-4.5 7.7-10.3zm-8.2 10.7c-.9 4.7-6.8 6.1-6.8 6.1s-4.9-3.6-3.9-8.3c-1.2 5.8 3.1 12.5 3.1 12.5s6.4-4.5 7.6-10.3zm16.3-21.3c-.9 4.7-6.8 6.1-6.8 6.1s-4.9-3.6-3.9-8.3c-1.2 5.8 3.1 12.5 3.1 12.5s6.5-4.5 7.6-10.3zM341.8 379.6c.9 4.7 6.8 6.1 6.8 6.1s4.9-3.6 4-8.3c1.2 5.8-3.1 12.5-3.1 12.5s-6.6-4.4-7.7-10.3zm-11.6 2.4c.9 4.7 6.8 6.1 6.8 6.1s4.9-3.6 3.9-8.3c1.2 5.8-3.1 12.5-3.1 12.5s-6.5-4.5-7.6-10.3zm8.2 10.5c.9 4.7 6.8 6.1 6.8 6.1s4.9-3.6 4-8.3c1.2 5.8-3.1 12.5-3.1 12.5s-6.6-4.4-7.7-10.3zm-11.6 2.4c.9 4.7 6.8 6.1 6.8 6.1s4.9-3.6 3.9-8.3c1.2 5.8-3.1 12.5-3.1 12.5s-6.5-4.5-7.6-10.3zm8.1 10.7c.9 4.7 6.8 6.1 6.8 6.1s4.9-3.6 3.9-8.3c1.2 5.8-3.1 12.5-3.1 12.5s-6.4-4.5-7.6-10.3zm-16.3-21.3c.9 4.7 6.8 6.1 6.8 6.1s4.9-3.6 3.9-8.3c1.2 5.8-3.1 12.5-3.1 12.5s-6.4-4.5-7.6-10.3z"/><circle class="st6" cx="259.2" cy="349.4" r="26.7"/><path class="st7" d="M277.8 352c0 7.2-5.8 13-13 13s-13-5.8-13-13 5.8-13 13-13 13 5.8 13 13z"/><circle cx="264.8" cy="352" r="8.3"/><circle class="st6" cx="261.1" cy="349.1" r="2.5"/><circle class="st6" cx="320.5" cy="349.4" r="26.7"/><path class="st7" d="M339 352c0 7.2-5.8 13-13 13s-13-5.8-13-13 5.8-13 13-13 13 5.8 13 13z"/><circle cx="326" cy="352" r="8.3"/><circle class="st6" cx="322.4" cy="349.1" r="2.5"/><radialGradient id="l" cx="287.85" cy="364.19" r="18.77" gradientTransform="matrix(.1938 .981 -.9844 .1945 590.56 10.97)" gradientUnits="userSpaceOnUse"><stop stop-color="#dedfe0" offset="0"/><stop stop-color="#dadcdd" offset=".15"/><stop stop-color="#d0d2d3" offset=".31"/><stop stop-color="#bfc1c3" offset=".47"/><stop stop-color="#a8aaac" offset=".63"/><stop stop-color="#8b8d90" offset=".8"/><stop stop-color="#6a6b6d" offset=".96"/><stop stop-color="#5f6062" offset="1"/></radialGradient><path d="M289.8 401.4c0-9.9 15.1-23.8 15.1-34.1 0-8.3-6.8-14.9-15.1-14.9s-15.1 6.7-15.1 14.9c0 10.3 15.1 24.2 15.1 34.1z" fill="url(#l)"/></g></switch></svg>