<?xml version="1.0" encoding="UTF-8" standalone="no"?>
<svg
   xmlns:dc="http://purl.org/dc/elements/1.1/"
   xmlns:cc="http://creativecommons.org/ns#"
   xmlns:rdf="http://www.w3.org/1999/02/22-rdf-syntax-ns#"
   xmlns:svg="http://www.w3.org/2000/svg"
   xmlns="http://www.w3.org/2000/svg"
   xmlns:xlink="http://www.w3.org/1999/xlink"
   xmlns:sodipodi="http://sodipodi.sourceforge.net/DTD/sodipodi-0.dtd"
   xmlns:inkscape="http://www.inkscape.org/namespaces/inkscape"
   inkscape:version="1.0 (4035a4fb49, 2020-05-01)"
   height="277.13544"
   width="515.31"
   sodipodi:docname="TF_FullColor_Stacked.svg"
   version="1.1"
   viewBox="0 0 515.31001 277.13544"
   id="Artwork">
  <metadata
     id="metadata323">
    <rdf:RDF>
      <cc:Work
         rdf:about="">
        <dc:format>image/svg+xml</dc:format>
        <dc:type
           rdf:resource="http://purl.org/dc/dcmitype/StillImage" />
        <dc:title>FullColorPrimary Vertical</dc:title>
      </cc:Work>
    </rdf:RDF>
  </metadata>
  <sodipodi:namedview
     inkscape:current-layer="Artwork"
     inkscape:window-maximized="0"
     inkscape:window-y="0"
     inkscape:window-x="0"
     inkscape:cy="138.17999"
     inkscape:cx="256.60999"
     inkscape:zoom="1.5791204"
     fit-margin-bottom="0"
     fit-margin-right="0"
     fit-margin-left="0"
     fit-margin-top="0"
     showgrid="false"
     id="namedview321"
     inkscape:window-height="480"
     inkscape:window-width="723"
     inkscape:pageshadow="2"
     inkscape:pageopacity="0"
     guidetolerance="10"
     gridtolerance="10"
     objecttolerance="10"
     borderopacity="1"
     bordercolor="#666666"
     pagecolor="#ffffff" />
  <defs
     id="defs288">
    <style
       id="style274">.cls-1{fill:none;}.cls-2{clip-path:url(#clip-path);}.cls-3{fill:url(#linear-gradient);}.cls-4{clip-path:url(#clip-path-2);}.cls-5{fill:url(#linear-gradient-2);}.cls-6{fill:#425066;}</style>
    <clipPath
       id="clip-path">
      <polygon
         id="polygon276"
         points="337.47,75.72 337.47,226.84 363.25,211.88 363.25,169.36 382.72,180.63 382.61,151.54 363.25,140.48 363.25,123.59 402.09,146.03 402,112.59 "
         class="cls-1" />
    </clipPath>
    <linearGradient
       gradientUnits="userSpaceOnUse"
       y2="151.10001"
       x2="419.64999"
       y1="151.10001"
       x1="261.17999"
       id="linear-gradient">
      <stop
         id="stop279"
         stop-color="#ff6f00"
         offset="0" />
      <stop
         id="stop281"
         stop-color="#ffa800"
         offset="1" />
    </linearGradient>
    <clipPath
       id="clip-path-2">
      <polygon
         id="polygon284"
         points="331.67,75.72 331.67,226.84 305.89,211.88 305.89,123.59 267.05,146.03 267.14,112.59 "
         class="cls-1" />
    </clipPath>
    <linearGradient
       xlink:href="#linear-gradient"
       y2="151.10001"
       x2="418.57999"
       y1="151.10001"
       x1="260.10999"
       id="linear-gradient-2" />
    <linearGradient
       y2="151.10001"
       x2="419.64999"
       y1="151.10001"
       x1="261.17999"
       gradientUnits="userSpaceOnUse"
       id="linearGradient325"
       xlink:href="#linear-gradient"
       inkscape:collect="always" />
  </defs>
  <title
     id="title290">FullColorPrimary Vertical</title>
  <g
     transform="translate(-78.07,-75.72)"
     id="g294"
     clip-path="url(#clip-path)"
     class="cls-2">
    <rect
       style="fill:url(#linearGradient325)"
       id="rect292"
       height="151.86"
       width="158.47"
       y="75.169998"
       x="261.17999"
       class="cls-3" />
  </g>
  <g
     transform="translate(-78.07,-75.72)"
     id="g298"
     clip-path="url(#clip-path-2)"
     class="cls-4">
    <rect
       style="fill:url(#linear-gradient-2)"
       id="rect296"
       height="151.86"
       width="158.47"
       y="75.169998"
       x="260.10999"
       class="cls-5" />
  </g>
  <path
     id="path300"
     d="M 59.25,211.88 H 35.93 v 64.23 H 23.08 V 211.88 H 0 v -10.46 h 59.25 z"
     class="cls-6" />
  <path
     id="path302"
     d="m 74.7,277.13 q -11.85,0 -19.21,-7.46 -7.36,-7.46 -7.36,-19.88 v -1.51 a 33.4,33.4 0 0 1 3.2,-14.85 24.4,24.4 0 0 1 9,-10.18 23.76,23.76 0 0 1 12.92,-3.64 q 11.34,0 17.52,7.23 6.18,7.23 6.16,20.44 v 5 H 60.69 q 0.57,6.89 4.6,10.88 a 13.76,13.76 0 0 0 10.13,4 16.89,16.89 0 0 0 13.95,-6.88 l 6.72,6.41 a 22.41,22.41 0 0 1 -8.9,7.72 27.84,27.84 0 0 1 -12.49,2.72 z m -1.49,-47.55 a 10.49,10.49 0 0 0 -8.28,3.59 q -3.17,3.58 -4,10 h 23.75 v -0.89 q -0.41,-6.25 -3.33,-9.46 a 10.41,10.41 0 0 0 -8.14,-3.24 z"
     class="cls-6" />
  <path
     id="path304"
     d="m 118.2,220.6 0.36,6.41 a 20,20 0 0 1 16.16,-7.43 q 17.34,0 17.64,19.85 v 36.68 h -12.43 v -36 c 0,-3.53 -0.76,-6.13 -2.28,-7.83 -1.52,-1.7 -4,-2.54 -7.47,-2.54 q -7.53,0 -11.23,6.83 v 39.5 h -12.5 V 220.6 Z"
     class="cls-6" />
  <path
     id="path306"
     d="m 192.81,261.03 a 5.64,5.64 0 0 0 -2.74,-5.08 q -2.75,-1.76 -9.11,-3.08 a 46.78,46.78 0 0 1 -10.62,-3.39 q -9.33,-4.51 -9.33,-13.08 a 14.74,14.74 0 0 1 6,-12 q 6.06,-4.83 15.39,-4.82 9.94,0 16.08,4.92 a 15.61,15.61 0 0 1 6.18,12.78 H 192.2 a 7.67,7.67 0 0 0 -2.67,-6 10.23,10.23 0 0 0 -7.08,-2.39 11,11 0 0 0 -6.69,1.9 6,6 0 0 0 -2.6,5.08 5.06,5.06 0 0 0 2.42,4.46 q 2.4,1.59 9.74,3.21 a 46.22,46.22 0 0 1 11.52,3.85 16.27,16.27 0 0 1 6.21,5.36 13.64,13.64 0 0 1 2,7.59 14.45,14.45 0 0 1 -6.21,12.13 q -6.19,4.65 -16.26,4.64 a 28.66,28.66 0 0 1 -12.15,-2.46 20,20 0 0 1 -8.31,-6.77 16,16 0 0 1 -3,-9.29 h 12.11 a 8.77,8.77 0 0 0 3.33,6.8 13,13 0 0 0 8.16,2.39 q 4.92,0 7.49,-1.88 a 5.77,5.77 0 0 0 2.6,-4.87 z"
     class="cls-6" />
  <path
     id="path308"
     d="m 211.49,247.84 a 32.66,32.66 0 0 1 3.23,-14.7 23.54,23.54 0 0 1 9.08,-10.05 25.61,25.61 0 0 1 13.44,-3.51 q 11.24,0 18.23,7.23 6.99,7.23 7.57,19.18 l 0.05,2.93 a 33.07,33.07 0 0 1 -3.16,14.67 23.39,23.39 0 0 1 -9,10 25.78,25.78 0 0 1 -13.57,3.54 q -11.75,0 -18.8,-7.82 -7.05,-7.82 -7.05,-20.85 z m 12.44,1.08 q 0,8.57 3.54,13.41 a 11.49,11.49 0 0 0 9.85,4.85 11.37,11.37 0 0 0 9.82,-4.92 q 3.52,-4.94 3.52,-14.42 0,-8.42 -3.62,-13.34 a 12.19,12.19 0 0 0 -19.52,-0.07 q -3.59,4.85 -3.59,14.49 z"
     class="cls-6" />
  <path
     id="path310"
     d="m 300.59,231.99 a 31.16,31.16 0 0 0 -5.07,-0.41 q -8.58,0 -11.55,6.57 v 38 H 271.51 V 220.6 h 11.9 l 0.31,6.21 q 4.51,-7.23 12.51,-7.23 a 11.83,11.83 0 0 1 4.41,0.71 z"
     class="cls-6" />
  <path
     id="path312"
     d="m 352.71,244.46 h -30.06 v 31.65 h -13 v -74.69 h 47.45 v 10.46 h -34.45 v 22.21 h 30.06 z"
     class="cls-6" />
  <path
     id="path314"
     d="m 377.34,276.11 h -12.47 v -74.83 h 12.47 z"
     class="cls-6" />
  <path
     id="path316"
     d="m 386.47,247.84 a 32.79,32.79 0 0 1 3.23,-14.7 23.6,23.6 0 0 1 9.08,-10.05 25.61,25.61 0 0 1 13.44,-3.51 q 11.23,0 18.24,7.23 7.01,7.23 7.57,19.18 v 2.93 a 32.93,32.93 0 0 1 -3.1,14.67 23.26,23.26 0 0 1 -9,10 25.72,25.72 0 0 1 -13.56,3.54 q -11.76,0 -18.81,-7.82 -7.05,-7.82 -7,-20.85 z m 12.46,1.08 q 0,8.57 3.54,13.41 a 12.34,12.34 0 0 0 19.67,-0.07 q 3.51,-4.94 3.51,-14.42 0,-8.42 -3.61,-13.34 a 11.56,11.56 0 0 0 -9.83,-4.92 11.43,11.43 0 0 0 -9.69,4.85 q -3.59,4.85 -3.59,14.49 z"
     class="cls-6" />
  <path
     id="path318"
     d="m 494.33,258.92 8.82,-38.32 h 12.16 l -15.13,55.51 h -10.25 l -11.9,-38.12 -11.7,38.12 H 456.06 L 440.93,220.6 h 12.16 l 9,37.91 11.39,-37.91 h 9.39 z"
     class="cls-6" />
</svg>
