<?xml version="1.0" encoding="UTF-8"?>
<svg version="1.1" viewBox="0 0 515.3 277.1" xmlns="http://www.w3.org/2000/svg" xmlns:xlink="http://www.w3.org/1999/xlink">
<defs>
<linearGradient id="a" x1="261.2" x2="419.6" y1="151.1" y2="151.1" gradientUnits="userSpaceOnUse">
<stop stop-color="#ff6f00" offset="0"/>
<stop stop-color="#ffa800" offset="1"/>
</linearGradient>
<linearGradient id="c" x1="260.1" x2="418.6" y1="151.1" y2="151.1" xlink:href="#a"/>
<linearGradient id="b" x1="261.2" x2="419.6" y1="151.1" y2="151.1" gradientUnits="userSpaceOnUse" xlink:href="#a"/>
<clipPath id="e">
<path class="cls-1" d="M337.5 75.7v151.1l25.8-15v-42.4l19.4 11.2v-29l-19.4-11.1v-17L402 146l-.1-33.4z"/>
</clipPath>
<clipPath id="d">
<path class="cls-1" d="M331.7 75.7v151.1l-25.8-15v-88.2L267 146v-33.4z"/>
</clipPath>
<style>.cls-1{fill:none}.cls-6{fill:#425066}</style>
</defs>
<g transform="translate(-78 -75.7)" clip-path="url(#e)">
<path d="M261.2 75.2h158.5v151.9H261.2z" fill="url(#b)"/>
</g>
<g transform="translate(-78 -75.7)" clip-path="url(#d)">
<path d="M260.1 75.2h158.5v151.9H260.1z" fill="url(#c)"/>
</g>
<path class="cls-6" d="M59.3 211.9H35.9V276H23.1V212H0v-10.5h59.3z"/>
<path class="cls-6" d="M74.7 277.1q-11.8 0-19.2-7.4-7.4-7.5-7.4-20v-1.4a33.4 33.4 0 013.2-14.9 24.4 24.4 0 019-10.1 23.8 23.8 0 0113-3.7q11.3 0 17.5 7.2 6.1 7.3 6.1 20.5v5H60.7q.6 6.9 4.6 10.9a13.8 13.8 0 0010.1 4 16.9 16.9 0 0014-7l6.7 6.5a22.4 22.4 0 01-9 7.7 27.8 27.8 0 01-12.4 2.7zm-1.5-47.5a10.5 10.5 0 00-8.3 3.6q-3.1 3.5-4 10h23.8v-1q-.4-6.2-3.3-9.4a10.4 10.4 0 00-8.2-3.2z"/>
<path class="cls-6" d="M118.2 220.6l.4 6.4a20 20 0 0116.1-7.4q17.4 0 17.7 19.8v36.7h-12.5v-36c0-3.5-.7-6.1-2.2-7.8-1.6-1.7-4-2.6-7.5-2.6q-7.5 0-11.2 6.9V276h-12.5v-55.5z"/>
<path class="cls-6" d="M192.8 261a5.6 5.6 0 00-2.7-5q-2.8-1.8-9.1-3.1a46.8 46.8 0 01-10.7-3.4q-9.3-4.5-9.3-13.1a14.7 14.7 0 016-12q6-4.8 15.4-4.8 10 0 16 4.9a15.6 15.6 0 016.3 12.8h-12.5a7.7 7.7 0 00-2.7-6 10.2 10.2 0 00-7-2.4 11 11 0 00-6.7 1.9 6 6 0 00-2.6 5 5 5 0 002.4 4.5q2.4 1.6 9.7 3.2a46.2 46.2 0 0111.5 3.9 16.3 16.3 0 016.2 5.3 13.6 13.6 0 012 7.6 14.4 14.4 0 01-6.2 12.2q-6.2 4.6-16.2 4.6a28.7 28.7 0 01-12.2-2.5 20 20 0 01-8.3-6.7 16 16 0 01-3-9.3h12.1a8.8 8.8 0 003.4 6.8 13 13 0 008.1 2.4q5 0 7.5-1.9a5.8 5.8 0 002.6-4.9z"/>
<path class="cls-6" d="M211.5 247.8a32.7 32.7 0 013.2-14.7 23.5 23.5 0 019.1-10 25.6 25.6 0 0113.4-3.5q11.3 0 18.3 7.2T263 246v3a33 33 0 01-3 14.6 23.4 23.4 0 01-9 10 25.8 25.8 0 01-13.6 3.5q-11.8 0-18.8-7.8t-7-20.8zm12.4 1.1q0 8.6 3.6 13.4a11.5 11.5 0 009.8 4.9 11.4 11.4 0 009.8-5q3.6-4.9 3.6-14.4 0-8.4-3.7-13.3a12.2 12.2 0 00-19.5 0q-3.6 4.8-3.6 14.4z"/>
<path class="cls-6" d="M300.6 232a31.2 31.2 0 00-5-.4q-8.7 0-11.6 6.6v38h-12.5v-55.6h12l.2 6.2q4.5-7.2 12.5-7.2a11.8 11.8 0 014.4.7z"/>
<path class="cls-6" d="M352.7 244.5h-30V276h-13v-74.7H357V212h-34.5V234h30.1z"/>
<path class="cls-6" d="M377.3 276.1H365v-74.8h12.4z"/>
<path class="cls-6" d="M386.5 247.8a32.8 32.8 0 013.2-14.7 23.6 23.6 0 019-10 25.6 25.6 0 0113.5-3.5q11.3 0 18.3 7.2T438 246v3a33 33 0 01-3 14.6 23.3 23.3 0 01-9 10 25.7 25.7 0 01-13.6 3.5q-11.8 0-18.8-7.8t-7-20.8zm12.4 1.1q0 8.6 3.6 13.4a12.3 12.3 0 0019.6 0q3.6-5 3.6-14.5 0-8.4-3.7-13.3a11.6 11.6 0 00-9.8-5 11.4 11.4 0 00-9.7 5q-3.6 4.8-3.6 14.4z"/>
<path class="cls-6" d="M494.3 259l8.8-38.4h12.2l-15.1 55.5h-10.3L478 238 466.3 276h-10.2l-15.2-55.5h12.2l9 38 11.4-38h9.4z"/>
</svg>
