<?xml version="1.0" encoding="UTF-8" standalone="no"?>
<svg
   xmlns:dc="http://purl.org/dc/elements/1.1/"
   xmlns:cc="http://creativecommons.org/ns#"
   xmlns:rdf="http://www.w3.org/1999/02/22-rdf-syntax-ns#"
   xmlns:svg="http://www.w3.org/2000/svg"
   xmlns="http://www.w3.org/2000/svg"
   xmlns:sodipodi="http://sodipodi.sourceforge.net/DTD/sodipodi-0.dtd"
   xmlns:inkscape="http://www.inkscape.org/namespaces/inkscape"
   inkscape:version="1.0 (4035a4fb49, 2020-05-01)"
   height="537.85999"
   width="648.15424"
   sodipodi:docname="ubuntu_black-orange_st_hex-1.svg"
   id="svg87"
   version="1.1"
   viewBox="0 0 648.15421 537.85998">
  <metadata
     id="metadata91">
    <rdf:RDF>
      <cc:Work
         rdf:about="">
        <dc:format>image/svg+xml</dc:format>
        <dc:type
           rdf:resource="http://purl.org/dc/dcmitype/StillImage" />
        <dc:title></dc:title>
      </cc:Work>
    </rdf:RDF>
  </metadata>
  <sodipodi:namedview
     inkscape:current-layer="svg87"
     inkscape:window-maximized="1"
     inkscape:window-y="-8"
     inkscape:window-x="-8"
     inkscape:cy="293.025"
     inkscape:cx="324.07923"
     inkscape:zoom="0.92478266"
     fit-margin-bottom="0"
     fit-margin-right="0"
     fit-margin-left="0"
     fit-margin-top="0"
     showgrid="false"
     id="namedview89"
     inkscape:window-height="1017"
     inkscape:window-width="1920"
     inkscape:pageshadow="2"
     inkscape:pageopacity="0"
     guidetolerance="10"
     gridtolerance="10"
     objecttolerance="10"
     borderopacity="1"
     bordercolor="#666666"
     pagecolor="#ffffff" />
  <defs
     id="defs77" />
  <path
     id="path79"
     d="m 90.654228,532.03 a 256.79,256.79 0 0 1 -18.23,3.67 c -7.56,1.3 -16.3,1.94 -26.23,1.94 -8.63,0 -15.9,-1.26 -21.8,-3.77 a 35.14,35.14 0 0 1 -14.24,-10.69 43.34,43.34 0 0 1 -7.7699999,-16.3 84.85,84.85 0 0 1 -2.38000004,-20.82 V 423.04 H 20.084228 v 58.7 c 0,13.67 2.15,23.46 6.47,29.36 4.32,5.9 11.58,8.85 21.8,8.85 2.16,0 4.39,-0.07 6.7,-0.22 2.3,-0.14 4.45,-0.32 6.47,-0.54 2,-0.22 3.84,-0.43 5.5,-0.65 1.65,-0.21 2.84,-0.46 3.56,-0.75 v -94.75 h 20.07 v 109 z M 139.65423,428 c 2.44,-1.58 6.15,-3.24 11.11,-4.96 4.97,-1.73 10.69,-2.6 17.16,-2.6 8.06,0 15.22,1.44 21.48,4.32 a 44.64,44.64 0 0 1 15.86,12.09 53.28,53.28 0 0 1 9.82,18.56 79.93,79.93 0 0 1 3.35,23.74 c 0,9.07 -1.34,17.24 -4,24.5 a 51.53,51.53 0 0 1 -11.33,18.45 49.92,49.92 0 0 1 -17.7,11.66 c -6.9,2.73 -14.67,4.1 -23.3,4.1 -9.36,0 -17.63,-0.65 -24.83,-1.94 -7.2,-1.3 -13.1,-2.6 -17.7,-3.89 v -160.8 l 20.08,-3.45 z m 0,89.79 a 64.6,64.6 0 0 0 8.52,1.61 c 3.67,0.51 8.24,0.76 13.7,0.76 10.8,0 19.43,-3.56 25.9,-10.68 6.48,-7.13 9.72,-17.23 9.72,-30.33 0,-5.75 -0.58,-11.15 -1.73,-16.19 a 36.5,36.5 0 0 0 -5.6,-13.05 27.16,27.16 0 0 0 -10.04,-8.64 c -4.1,-2.08 -9.04,-3.13 -14.79,-3.13 -5.47,0 -10.5,0.94 -15.1,2.8 -4.61,1.88 -8.14,3.82 -10.58,5.84 v 71 z m 190.79,14.24 a 256.95,256.95 0 0 1 -18.23,3.67 c -7.56,1.3 -16.3,1.94 -26.23,1.94 -8.63,0 -15.9,-1.26 -21.8,-3.77 a 35.14,35.14 0 0 1 -14.24,-10.69 43.34,43.34 0 0 1 -7.77,-16.3 84.85,84.85 0 0 1 -2.38,-20.82 v -63.02 h 20.07 v 58.7 c 0,13.67 2.16,23.46 6.48,29.36 4.32,5.9 11.58,8.85 21.8,8.85 2.16,0 4.39,-0.07 6.69,-0.22 2.3,-0.14 4.46,-0.32 6.47,-0.54 2.02,-0.22 3.85,-0.43 5.5,-0.65 1.66,-0.21 2.85,-0.46 3.57,-0.75 v -94.75 h 20.07 v 109 z m 28.93,-105.75 c 4.6,-1.16 10.71,-2.38 18.34,-3.68 7.63,-1.3 16.4,-1.94 26.33,-1.94 8.92,0 16.33,1.26 22.23,3.78 5.9,2.52 10.61,6.04 14.14,10.57 3.52,4.54 6,9.97 7.45,16.3 a 94.74,94.74 0 0 1 2.16,20.94 v 63.02 h -20.08 v -58.7 c 0,-6.91 -0.47,-12.81 -1.4,-17.7 -0.94,-4.9 -2.48,-8.85 -4.64,-11.87 a 18.37,18.37 0 0 0 -8.63,-6.59 c -3.6,-1.37 -8.07,-2.05 -13.39,-2.05 -2.16,0 -4.39,0.07 -6.69,0.22 -2.3,0.14 -4.5,0.32 -6.58,0.54 -2.09,0.21 -3.96,0.47 -5.61,0.75 -1.66,0.3 -2.84,0.5 -3.56,0.65 v 94.75 h -20.07 v -109 z m 137.05,-3.24 h 42.52 v 16.83 h -42.52 v 51.8 c 0,5.61 0.43,10.25 1.3,13.92 0.86,3.67 2.15,6.55 3.88,8.64 a 13.96,13.96 0 0 0 6.47,4.42 28.7,28.7 0 0 0 9.07,1.3 c 6.18,0 11.08,-0.68 14.67,-2.05 a 172.6,172.6 0 0 0 7.34,-2.92 l 4.32,16.4 c -2.02,1.01 -5.58,2.31 -10.68,3.89 a 58.68,58.68 0 0 1 -17.38,2.37 c -7.63,0 -13.92,-0.97 -18.89,-2.9 -4.97,-1.93 -8.95,-4.86 -11.97,-8.75 -3.03,-3.89 -5.15,-8.67 -6.37,-14.35 -1.23,-5.69 -1.84,-12.27 -1.84,-19.75 V 391.74 l 20.08,-3.45 z m 151.73,108.99 a 257.14,257.14 0 0 1 -18.24,3.67 c -7.55,1.3 -16.3,1.94 -26.22,1.94 -8.64,0 -15.9,-1.26 -21.8,-3.77 a 35.15,35.15 0 0 1 -14.25,-10.69 43.35,43.35 0 0 1 -7.77,-16.3 84.8,84.8 0 0 1 -2.37,-20.82 v -63.02 h 20.07 v 58.7 c 0,13.67 2.16,23.46 6.48,29.36 4.31,5.9 11.58,8.85 21.8,8.85 2.15,0 4.38,-0.07 6.69,-0.22 2.3,-0.14 4.45,-0.32 6.47,-0.54 2.01,-0.22 3.85,-0.43 5.5,-0.65 1.66,-0.21 2.84,-0.46 3.57,-0.75 v -94.75 h 20.07 v 109 z" />
  <g
     transform="translate(-271.19577,-127.92)"
     id="g85">
    <path
       id="path81"
       d="m 771.72,298 c 0,93.93 -76.13,170.08 -170.07,170.08 -93.94,0 -170.09,-76.15 -170.09,-170.08 0,-93.93 76.15,-170.08 170.09,-170.08 93.94,0 170.07,76.15 170.07,170.08 z"
       fill="#e95420" />
    <path
       id="path83"
       d="m 513.38,298 a 21.875,21.875 0 1 1 -43.75,0 21.875,21.875 0 0 1 43.75,0 z m 124.4,106.33 a 21.881854,21.881854 0 1 0 37.89,-21.9 21.877525,21.877525 0 0 0 -37.88,21.9 z m 37.88,-190.78 a 21.865691,21.865691 0 1 0 -37.87,-21.87 21.865691,21.865691 0 1 0 37.87,21.87 z m -74.01,22.1 a 62.35,62.35 0 0 1 62.11,56.83 l 31.65,-0.5 a 93.66,93.66 0 0 0 -27.6,-60.66 30.72,30.72 0 0 1 -26.47,-2.05 30.7,30.7 0 0 1 -15.02,-21.93 93.86,93.86 0 0 0 -24.67,-3.29 93.61,93.61 0 0 0 -41.68,9.73 l 15.4,27.65 a 62.24,62.24 0 0 1 26.28,-5.79 z M 539.28,298 A 62.27,62.27 0 0 1 565.8,246.97 L 549.55,219.81 A 94.09,94.09 0 0 0 510.8,274.03 30.7,30.7 0 0 1 522.28,298 30.7,30.7 0 0 1 510.8,321.97 94.13,94.13 0 0 0 549.55,376.2 L 565.8,349.04 A 62.29,62.29 0 0 1 539.28,298 Z m 62.37,62.37 c -9.39,0 -18.3,-2.08 -26.28,-5.8 l -15.4,27.65 a 93.52,93.52 0 0 0 41.68,9.73 c 8.53,0 16.8,-1.14 24.67,-3.28 a 30.68,30.68 0 0 1 15.02,-21.93 30.7,30.7 0 0 1 26.48,-2.05 93.7,93.7 0 0 0 27.59,-60.67 l -31.65,-0.49 a 62.36,62.36 0 0 1 -62.11,56.84 z"
       fill="#ffffff" />
  </g>
</svg>
