<?xml version="1.0" encoding="utf-8"?>
<!-- Generator: Adobe Illustrator 16.0.4, SVG Export Plug-In . SVG Version: 6.00 Build 0)  -->
<!DOCTYPE svg PUBLIC "-//W3C//DTD SVG 1.1//EN" "http://www.w3.org/Graphics/SVG/1.1/DTD/svg11.dtd">
<svg version="1.1" id="ubuntu__x5F__black_x26_orange"
	 xmlns="http://www.w3.org/2000/svg" xmlns:xlink="http://www.w3.org/1999/xlink" x="0px" y="0px" width="1190.551px"
	 height="841.89px" viewBox="0 0 1190.551 841.89" enable-background="new 0 0 1190.551 841.89" xml:space="preserve">
<g>
	<g>
		<g>
			<path d="M361.854,659.952c-4.606,1.153-10.684,2.375-18.238,3.669c-7.555,1.296-16.296,1.942-26.225,1.942
				c-8.633,0-15.901-1.261-21.799-3.775c-5.902-2.516-10.65-6.079-14.245-10.685c-3.599-4.604-6.188-10.037-7.77-16.296
				c-1.585-6.26-2.375-13.199-2.375-20.828v-63.022h20.073v58.705c0,13.672,2.158,23.456,6.476,29.354
				c4.316,5.902,11.581,8.851,21.799,8.851c2.158,0,4.387-0.072,6.691-0.218c2.3-0.141,4.458-0.323,6.475-0.539
				c2.013-0.216,3.848-0.431,5.504-0.646c1.652-0.216,2.839-0.465,3.561-0.755v-94.751h20.073V659.952z"/>
			<path d="M410.846,555.92c2.445-1.581,6.151-3.237,11.115-4.963c4.964-1.728,10.684-2.59,17.159-2.59
				c8.057,0,15.216,1.438,21.476,4.315c6.259,2.88,11.547,6.907,15.863,12.088c4.317,5.18,7.588,11.368,9.821,18.562
				c2.229,7.196,3.346,15.107,3.346,23.739c0,9.066-1.333,17.235-3.993,24.5c-2.664,7.266-6.441,13.417-11.332,18.452
				c-4.894,5.039-10.792,8.923-17.698,11.656c-6.907,2.731-14.677,4.1-23.311,4.1c-9.355,0-17.627-0.646-24.821-1.942
				c-7.196-1.295-13.095-2.589-17.698-3.885V499.154l20.073-3.452V555.92z M410.846,645.708c2.013,0.576,4.856,1.115,8.526,1.617
				c3.669,0.506,8.235,0.757,13.705,0.757c10.792,0,19.425-3.562,25.9-10.684c6.475-7.124,9.713-17.231,9.713-30.327
				c0-5.751-0.577-11.147-1.727-16.187c-1.153-5.035-3.021-9.388-5.611-13.057c-2.59-3.67-5.936-6.547-10.037-8.635
				c-4.101-2.084-9.032-3.129-14.785-3.129c-5.47,0-10.505,0.938-15.108,2.806c-4.607,1.872-8.131,3.815-10.576,5.827V645.708z"/>
			<path d="M601.644,659.952c-4.607,1.153-10.685,2.375-18.239,3.669c-7.555,1.296-16.295,1.942-26.224,1.942
				c-8.634,0-15.901-1.261-21.8-3.775c-5.902-2.516-10.65-6.079-14.245-10.685c-3.599-4.604-6.188-10.037-7.77-16.296
				c-1.585-6.26-2.375-13.199-2.375-20.828v-63.022h20.073v58.705c0,13.672,2.158,23.456,6.475,29.354
				c4.316,5.902,11.581,8.851,21.799,8.851c2.158,0,4.388-0.072,6.691-0.218c2.3-0.141,4.458-0.323,6.475-0.539
				c2.013-0.216,3.848-0.431,5.504-0.646c1.652-0.216,2.84-0.465,3.561-0.755v-94.751h20.074V659.952z"/>
			<path d="M630.565,554.194c4.604-1.151,10.717-2.375,18.346-3.671c7.625-1.294,16.402-1.941,26.33-1.941
				c8.922,0,16.33,1.261,22.232,3.776c5.898,2.52,10.609,6.043,14.137,10.576c3.523,4.533,6.006,9.967,7.447,16.296
				c1.436,6.333,2.158,13.312,2.158,20.937v63.022h-20.074v-58.708c0-6.904-0.469-12.803-1.402-17.696
				c-0.938-4.89-2.48-8.849-4.641-11.87c-2.158-3.023-5.037-5.216-8.633-6.584c-3.6-1.367-8.061-2.051-13.381-2.051
				c-2.16,0-4.393,0.074-6.691,0.216c-2.303,0.145-4.498,0.325-6.582,0.541c-2.09,0.215-3.961,0.469-5.611,0.755
				c-1.656,0.29-2.844,0.506-3.562,0.646v94.751h-20.072V554.194z"/>
			<path d="M767.618,550.957h42.52v16.835h-42.52v51.799c0,5.611,0.43,10.253,1.295,13.921c0.863,3.671,2.158,6.549,3.885,8.634
				c1.727,2.088,3.885,3.562,6.475,4.425c2.59,0.863,5.611,1.296,9.064,1.296c6.186,0,11.08-0.682,14.678-2.051
				c3.594-1.366,6.043-2.337,7.338-2.913l4.316,16.403c-2.016,1.008-5.578,2.304-10.684,3.884
				c-5.109,1.582-10.898,2.374-17.375,2.374c-7.627,0-13.92-0.97-18.885-2.913s-8.957-4.856-11.979-8.741
				c-3.021-3.886-5.146-8.668-6.367-14.354c-1.225-5.682-1.836-12.264-1.836-19.748V519.66l20.074-3.453V550.957z"/>
			<path d="M919.349,659.952c-4.607,1.153-10.686,2.375-18.238,3.669c-7.555,1.296-16.295,1.942-26.225,1.942
				c-8.633,0-15.9-1.261-21.799-3.775c-5.902-2.516-10.65-6.079-14.246-10.685c-3.598-4.604-6.188-10.037-7.77-16.296
				c-1.586-6.26-2.375-13.199-2.375-20.828v-63.022h20.074v58.705c0,13.672,2.158,23.456,6.475,29.354
				c4.316,5.902,11.58,8.851,21.799,8.851c2.158,0,4.387-0.072,6.691-0.218c2.299-0.141,4.459-0.323,6.475-0.539
				c2.014-0.216,3.848-0.431,5.504-0.646c1.652-0.216,2.84-0.465,3.561-0.755v-94.751h20.074V659.952z"/>
		</g>
	</g>
	<g>
		<path fill="#E95420" d="M771.724,297.998c0,93.934-76.138,170.083-170.076,170.083c-93.939,0-170.084-76.15-170.084-170.083
			c0-93.927,76.146-170.075,170.084-170.075C695.586,127.922,771.724,204.071,771.724,297.998z"/>
		<path fill="#FFFFFF" d="M513.375,297.998c0,12.078-9.792,21.87-21.874,21.87c-12.071,0-21.862-9.792-21.862-21.87
			c0-12.071,9.791-21.863,21.862-21.863C503.583,276.135,513.375,285.926,513.375,297.998z M637.789,404.326
			c6.039,10.451,19.407,14.035,29.866,8.003c10.458-6.039,14.042-19.415,8.003-29.873c-6.039-10.459-19.407-14.036-29.866-7.996
			C635.333,380.499,631.75,393.867,637.789,404.326z M675.658,213.546c6.039-10.459,2.463-23.834-8.003-29.866
			c-10.451-6.039-23.827-2.455-29.866,8.003s-2.456,23.827,8.003,29.866S669.626,224.005,675.658,213.546z M601.647,235.642
			c32.587,0,59.323,24.978,62.115,56.837l31.647-0.499c-1.503-23.673-11.771-44.964-27.594-60.661
			c-8.378,3.23-18.096,2.791-26.48-2.052c-8.392-4.845-13.632-13.046-15.017-21.929c-7.865-2.14-16.139-3.283-24.672-3.283
			c-14.968,0-29.113,3.503-41.675,9.726l15.398,27.651C583.352,237.723,592.264,235.642,601.647,235.642z M539.283,297.998
			c0-21.093,10.48-39.746,26.517-51.025l-16.249-27.16c-18.82,12.569-32.842,31.74-38.756,54.219
			c6.999,5.636,11.484,14.277,11.484,23.966c0,9.696-4.485,18.337-11.484,23.973c5.914,22.479,19.936,41.649,38.756,54.226
			l16.249-27.16C549.763,337.75,539.283,319.105,539.283,297.998z M601.647,360.366c-9.383,0-18.295-2.079-26.277-5.795
			l-15.398,27.651c12.562,6.23,26.707,9.726,41.675,9.726c8.533,0,16.807-1.136,24.672-3.276c1.385-8.89,6.625-17.091,15.017-21.929
			c8.385-4.844,18.103-5.284,26.48-2.052c15.823-15.704,26.091-36.995,27.594-60.668l-31.647-0.491
			C660.971,335.383,634.234,360.366,601.647,360.366z"/>
	</g>
</g>
</svg>
